<svg version="1.1" xmlns="http://www.w3.org/2000/svg" viewBox="0 0 1282.2943001191961 513.409811639993" width="1282.2943001191961" height="513.409811639993">
  <!-- svg-source:excalidraw -->

  <defs>
    <style class="style-fonts">
      @font-face {
        font-family: "Virgil";
        src: url("https://excalidraw.com/Virgil.woff2");
      }
      @font-face {
        font-family: "Cascadia";
        src: url("https://excalidraw.com/Cascadia.woff2");
      }
      @font-face {
        font-family: "Assistant";
        src: url("https://excalidraw.com/Assistant-Regular.woff2");
      }
    </style>

  </defs>
  <rect x="0" y="0" width="1282.2943001191961" height="513.409811639993" fill="#ffffff"></rect><g stroke-linecap="round" transform="translate(10.915337597084886 273.8852832996926) rotate(0 29.827685576606086 28.019947056811787)"><path d="M37.45 1.47 C43.7 2.45, 51.07 6.54, 54.76 11.43 C58.45 16.33, 60.31 24.74, 59.59 30.87 C58.87 37, 54.93 44.08, 50.44 48.22 C45.96 52.36, 38.85 55.34, 32.65 55.71 C26.46 56.07, 18.41 53.8, 13.27 50.4 C8.12 47, 3.57 41.12, 1.79 35.32 C0.01 29.53, 0.05 21.1, 2.61 15.64 C5.16 10.18, 10.3 4.71, 17.11 2.56 C23.91 0.41, 37.9 1.76, 43.42 2.75 C48.93 3.73, 50.26 7.81, 50.21 8.47 M22.53 0.08 C28.74 -1.2, 39.34 1.23, 45.14 3.94 C50.94 6.65, 55.08 11.03, 57.31 16.34 C59.54 21.65, 60.63 30.08, 58.53 35.8 C56.43 41.53, 50.25 47.23, 44.7 50.68 C39.14 54.13, 31.48 57.39, 25.2 56.52 C18.92 55.66, 11.01 50.01, 7.03 45.49 C3.05 40.97, 1.45 35.01, 1.31 29.4 C1.17 23.8, 2.73 16.67, 6.19 11.86 C9.65 7.05, 19.32 2.14, 22.07 0.53 C24.82 -1.08, 22.2 1.81, 22.69 2.2" stroke="#1e1e1e" stroke-width="2" fill="none"></path></g><g stroke-linecap="round"><g transform="translate(41.044312926990074 329.92517741331613) rotate(0 0 26.513498290316534)"><path d="M0.59 -1.03 C0.46 7.8, 0.25 44.27, 0.27 53.43 M-0.56 1.04 C-0.91 9.47, -0.69 43.02, -0.53 51.53" stroke="#1e1e1e" stroke-width="2" fill="none"></path></g></g><mask></mask><g stroke-linecap="round"><g transform="translate(18.14629167626208 438.99206810757283) rotate(0 25.308339277120353 -29.225106070007996)"><path d="M0.27 0.41 C4.22 -9.01, 15.89 -56.86, 24.25 -57.53 C32.61 -58.2, 45.86 -12.43, 50.42 -3.6 M-1.04 -0.42 C2.76 -10.08, 15.27 -58.86, 23.7 -59.17 C32.13 -59.48, 44.77 -11.48, 49.55 -2.28" stroke="#1e1e1e" stroke-width="2" fill="none"></path></g></g><mask></mask><g stroke-linecap="round"><g transform="translate(10.312758090486795 372.70832238178156) rotate(0 29.22510607000794 -16.872226184746893)"><path d="M0.75 0.92 C5.59 -4.77, 19.54 -32.92, 29.33 -33.73 C39.11 -34.55, 54.46 -9.04, 59.45 -3.97 M-0.31 0.35 C4.33 -5.17, 18.36 -31.61, 28.28 -32.19 C38.2 -32.77, 53.93 -8.13, 59.21 -3.15" stroke="#1e1e1e" stroke-width="2" fill="none"></path></g></g><mask></mask><g stroke-linecap="round" transform="translate(588.1872663596685 207.99579630983987) rotate(0 32.230576182478444 32.199712367130076)"><path d="M0.91 0.09 L63.79 -1.7 L65.55 63.9 L0.13 64.12" stroke="none" stroke-width="0" fill="#fd7e14"></path><path d="M0 0 C23.4 1.78, 45.16 1.49, 64.46 0 M0 0 C17.07 0.54, 35.4 -0.11, 64.46 0 M64.46 0 C63.95 12.37, 66.59 28.72, 64.46 64.4 M64.46 0 C64.6 23.19, 64.42 47.28, 64.46 64.4 M64.46 64.4 C37.6 64.74, 12.58 62.96, 0 64.4 M64.46 64.4 C49.13 63.81, 35.6 64.91, 0 64.4 M0 64.4 C-0.57 44.06, 0.93 27.41, 0 0 M0 64.4 C-0.6 47.25, -0.9 29.89, 0 0" stroke="#00000000" stroke-width="2" fill="none"></path></g><g stroke-linecap="round" transform="translate(585.7768744849925 212.75580686880494) rotate(0 32.230576182478444 32.199712367130076)"><path d="M0 0 C0 0, 0 0, 0 0 M0 0 C0 0, 0 0, 0 0 M-0.26 6.4 C1.59 3.83, 3.75 2.56, 4.99 0.36 M-0.26 6.4 C1.25 5.01, 2.3 2.88, 4.99 0.36 M0.13 12.04 C4.19 8.6, 6.22 5.37, 10.63 -0.03 M0.13 12.04 C2.97 9.26, 5.79 5.09, 10.63 -0.03 M-0.13 18.44 C2.99 11.65, 8.96 8.99, 15.62 0.33 M-0.13 18.44 C4.25 13.5, 7.91 8.83, 15.62 0.33 M0.27 24.08 C7.72 18.65, 11.75 8.92, 21.26 -0.07 M0.27 24.08 C6.06 17.23, 11.7 10.27, 21.26 -0.07 M0 30.48 C7.31 23.93, 14.1 13.77, 26.25 0.29 M0 30.48 C7.27 20.09, 16.59 11.55, 26.25 0.29 M-0.26 36.88 C12.32 22.66, 22.36 11.58, 31.89 -0.1 M-0.26 36.88 C10.64 23.54, 21.54 11.3, 31.89 -0.1 M0.14 42.52 C9.18 32.36, 17.19 24.74, 36.88 0.26 M0.14 42.52 C13.49 26.39, 25.67 12.13, 36.88 0.26 M-0.12 48.92 C14.8 31.65, 30.01 15.99, 42.52 -0.14 M-0.12 48.92 C11 37.21, 18.89 26.01, 42.52 -0.14 M0.27 54.56 C18 36.29, 32.23 17.63, 47.51 0.22 M0.27 54.56 C17.82 33.82, 33.4 14.05, 47.51 0.22 M0.01 60.96 C15.17 44.51, 28.04 29.71, 53.15 -0.17 M0.01 60.96 C12.09 46.53, 23.03 33.83, 53.15 -0.17 M1.72 65.09 C13.78 48.41, 25.95 35.23, 58.14 0.19 M1.72 65.09 C22.79 40.33, 44.15 16.21, 58.14 0.19 M7.36 64.7 C19.39 50.15, 32.58 36.83, 63.78 -0.21 M7.36 64.7 C28.25 41.98, 47.64 18.45, 63.78 -0.21 M12.35 65.06 C26.08 48.07, 44.9 27, 64.83 4.68 M12.35 65.06 C32.93 41.13, 54.44 17.43, 64.83 4.68 M17.99 64.66 C29.87 51.93, 42.47 34.46, 64.57 11.08 M17.99 64.66 C29.2 53.12, 39.25 41.4, 64.57 11.08 M22.98 65.02 C35.29 52.57, 49.63 38.08, 64.96 16.72 M22.98 65.02 C38.33 46.41, 55.78 27.61, 64.96 16.72 M28.62 64.63 C36.08 55.65, 44.74 49.43, 64.7 23.12 M28.62 64.63 C39.73 51.42, 50.59 38.76, 64.7 23.12 M33.61 64.99 C44.8 49.79, 58.52 37.99, 64.44 29.52 M33.61 64.99 C40.2 58.17, 45.4 49.76, 64.44 29.52 M39.25 64.59 C48.87 55.14, 58.99 43.16, 64.84 35.16 M39.25 64.59 C46.03 55.76, 54.04 48.63, 64.84 35.16 M44.24 64.95 C49.69 58.46, 54.13 53.47, 64.57 41.56 M44.24 64.95 C48.89 59.04, 55.96 53.05, 64.57 41.56 M49.88 64.56 C52.54 58.57, 57.89 55.45, 64.97 47.2 M49.88 64.56 C54.44 58.4, 58.78 54.4, 64.97 47.2 M54.87 64.92 C58.33 62.01, 62.87 57.74, 64.71 53.6 M54.87 64.92 C58.84 61.5, 61.68 57.14, 64.71 53.6 M60.51 64.53 C61.57 63.01, 62.22 62.11, 64.45 60 M60.51 64.53 C61.87 62.99, 63.21 61.52, 64.45 60" stroke="#fd7e14" stroke-width="0.5" fill="none"></path><path d="M0 0 C16.68 0.85, 36.09 -0.91, 64.46 0 M0 0 C20.09 -0.42, 39.99 -0.13, 64.46 0 M64.46 0 C66.17 19.69, 65.63 37.38, 64.46 64.4 M64.46 0 C63.5 16.2, 65.1 33.61, 64.46 64.4 M64.46 64.4 C44.63 63.14, 25.47 63.73, 0 64.4 M64.46 64.4 C42.81 64.01, 19.4 64.48, 0 64.4 M0 64.4 C1.4 52.45, -0.64 37.93, 0 0 M0 64.4 C-0.54 42.25, 0.89 20.73, 0 0" stroke="#000000" stroke-width="1" fill="none"></path></g><g stroke-linecap="round"><g transform="translate(610.7680820354396 239.5328363647469) rotate(0 -3.076774099999966 13.448499999999996)"><path d="M0 0 C-5.21 9.62, -9.69 18.76, -12.73 25.47 M0 0 C-5.16 9.45, -9.47 18.43, -12.73 25.47 M-12.73 25.47 C-9.24 26.35, -6.88 25.83, -0.52 26.9 M-12.73 25.47 C-9.56 25.97, -6.99 25.94, -0.52 26.9 M-0.52 26.9 C1.25 22.23, 4.43 17.79, 6.58 13.18 M-0.52 26.9 C0.89 24.28, 2.02 21.12, 6.58 13.18 M6.58 13.18 C4.95 10.13, 4.11 6.75, 0.9 0.56 M6.58 13.18 C5.11 9.45, 3.16 5.41, 0.9 0.56" stroke="#ffffff" stroke-width="2" fill="none"></path></g></g><mask></mask><g stroke-linecap="round"><g transform="translate(635.2548022354397 255.42983636474685) rotate(0 -12.74628000000007 -11)"><path d="M0 0 C-5.31 -12.8, -10.36 -24.32, -14.96 -32.42 M0 0 C-4.46 -9.88, -9.08 -18.95, -14.96 -32.42 M-14.96 -32.42 C-20.93 -32.92, -26.74 -33.28, -29.17 -33 M-14.96 -32.42 C-18.73 -32.79, -22.37 -32.87, -29.17 -33 M-29.17 -33 C-29.19 -30.93, -30.13 -27.96, -30.18 -23 M-29.17 -33 C-29.74 -29.82, -29.98 -26.44, -30.18 -23 M-30.18 -23 C-27.42 -22.89, -24.97 -22.64, -22.9 -22 M-30.18 -23 C-28.26 -22.89, -26.13 -22.51, -22.9 -22 M-22.9 -22 C-18.78 -12.16, -14.1 -1.32, -7.87 10.42 M-22.9 -22 C-17.2 -10.65, -12.9 0.7, -7.87 10.42 M-7.87 10.42 C-4.19 10.38, -0.46 10.66, 3.69 11 M-7.87 10.42 C-4.22 10.57, 0.09 10.93, 3.69 11 M3.69 11 C4.06 7.02, 3.99 3.2, 4.69 1 M3.69 11 C3.79 8.14, 4.07 5.17, 4.69 1 M4.69 1 C4.56 0.78, 4.23 0.58, 3.69 0 M4.69 1 C4.42 0.7, 4.11 0.43, 3.69 0" stroke="#ffffff" stroke-width="2" fill="none"></path></g></g><mask></mask><g transform="translate(549.5727006209224 280.33958076522197) rotate(0 67.63994598388672 10)"><text x="67.63994598388672" y="14.016" font-family="Virgil, Segoe UI Emoji" font-size="16px" fill="#000000" text-anchor="middle" style="white-space: pre;" direction="ltr" dominant-baseline="alphabetic">create-upload-url</text></g><g stroke-linecap="round" transform="translate(990.7028165422214 217.2825446730153) rotate(0 32.230576182478444 32.199712367130076)"><path d="M-0.27 -0.78 L66 0.95 L64.6 66 L1.85 64.98" stroke="none" stroke-width="0" fill="#fd7e14"></path><path d="M0 0 C14.1 -1.61, 28.79 -0.26, 64.46 0 M0 0 C18.05 0.07, 35.1 -1.05, 64.46 0 M64.46 0 C63.31 18.13, 65 32.31, 64.46 64.4 M64.46 0 C63.9 14, 64.19 29.89, 64.46 64.4 M64.46 64.4 C48.56 64.88, 33.21 63.03, 0 64.4 M64.46 64.4 C46.16 64.49, 26.57 65.23, 0 64.4 M0 64.4 C-0.55 50.34, 0.12 33.79, 0 0 M0 64.4 C-0.28 50.41, -0.81 36.23, 0 0" stroke="#00000000" stroke-width="2" fill="none"></path></g><g stroke-linecap="round" transform="translate(988.2924246675454 222.04255523198037) rotate(0 32.230576182478444 32.199712367130076)"><path d="M0 0 C0 0, 0 0, 0 0 M0 0 C0 0, 0 0, 0 0 M-0.26 6.4 C0.89 4.2, 3.92 2.65, 4.99 0.36 M-0.26 6.4 C1.73 3.95, 3.37 1.64, 4.99 0.36 M0.13 12.04 C2.05 8.8, 5.08 4.87, 10.63 -0.03 M0.13 12.04 C3.1 9.48, 3.73 7.09, 10.63 -0.03 M-0.13 18.44 C5.19 12.95, 8.24 8.38, 15.62 0.33 M-0.13 18.44 C4.84 11.41, 12.63 3.94, 15.62 0.33 M0.27 24.08 C6.02 15.67, 14.01 7.39, 21.26 -0.07 M0.27 24.08 C6.41 16.2, 14.65 8.42, 21.26 -0.07 M0 30.48 C6.26 24.78, 13.65 17.85, 26.25 0.29 M0 30.48 C10.36 20.27, 18.21 9.42, 26.25 0.29 M-0.26 36.88 C8.44 26.3, 14.66 17.21, 31.89 -0.1 M-0.26 36.88 C10.75 25.69, 21.06 13.18, 31.89 -0.1 M0.14 42.52 C13.1 29.94, 22.33 15.89, 36.88 0.26 M0.14 42.52 C11.75 28.33, 22.55 15.45, 36.88 0.26 M-0.12 48.92 C15.9 30.82, 32.6 10, 42.52 -0.14 M-0.12 48.92 C14.72 33.19, 29.63 16.83, 42.52 -0.14 M0.27 54.56 C17.83 32.43, 36.53 10.93, 47.51 0.22 M0.27 54.56 C18.2 32.53, 36.71 13.21, 47.51 0.22 M0.01 60.96 C17.35 41.29, 33.47 25.64, 53.15 -0.17 M0.01 60.96 C15.82 43.9, 32.08 25.95, 53.15 -0.17 M1.06 65.85 C19.65 42.62, 37.58 22.29, 58.14 0.19 M1.06 65.85 C15.69 50.78, 29.42 33.23, 58.14 0.19 M6.7 65.45 C29.34 39.91, 52.02 15.65, 63.78 -0.21 M6.7 65.45 C17.97 51.51, 31.6 36.12, 63.78 -0.21 M11.69 65.81 C27.81 47.61, 43.3 30.11, 66.8 2.42 M11.69 65.81 C26.67 46.16, 43.12 28.89, 66.8 2.42 M17.33 65.42 C35.59 45.97, 51.09 25.01, 67.19 8.06 M17.33 65.42 C32.56 48.49, 47.23 29.73, 67.19 8.06 M22.32 65.78 C31.92 50.99, 44.03 38.73, 66.93 14.46 M22.32 65.78 C36.53 50.5, 48.85 35.27, 66.93 14.46 M27.96 65.38 C39.24 54.68, 50.78 40.2, 66.67 20.86 M27.96 65.38 C38.52 53.14, 46.94 42.99, 66.67 20.86 M32.95 65.74 C41.68 55.01, 55.65 41.55, 67.07 26.5 M32.95 65.74 C43.76 52.66, 54.01 40.29, 67.07 26.5 M38.59 65.35 C46.57 56.04, 52.76 49.64, 66.8 32.9 M38.59 65.35 C47.84 54.59, 57.38 43.53, 66.8 32.9 M43.58 65.71 C50.07 59.86, 55.43 53.88, 67.2 38.54 M43.58 65.71 C49.33 60.46, 52.67 54.48, 67.2 38.54 M49.22 65.31 C55.2 60.39, 60.93 55.24, 66.94 44.94 M49.22 65.31 C55.03 59.33, 59.46 51.6, 66.94 44.94 M54.21 65.67 C58.74 60.39, 64.75 55.25, 66.68 51.34 M54.21 65.67 C58.27 61.78, 61.26 57.88, 66.68 51.34 M59.85 65.28 C61.83 62.04, 65.58 59.17, 67.07 56.98 M59.85 65.28 C62.36 62.66, 65.06 59.43, 67.07 56.98" stroke="#fd7e14" stroke-width="0.5" fill="none"></path><path d="M0 0 C17.59 0.1, 33.31 -0.41, 64.46 0 M0 0 C26.54 -0.88, 50.69 -1.09, 64.46 0 M64.46 0 C65.17 14.94, 62.79 30.61, 64.46 64.4 M64.46 0 C63.62 16.51, 63.54 31.13, 64.46 64.4 M64.46 64.4 C40.92 62.45, 14.57 63.12, 0 64.4 M64.46 64.4 C40.63 64.57, 16.35 64.14, 0 64.4 M0 64.4 C0.28 50.69, -1.51 39.42, 0 0 M0 64.4 C-0.5 46.22, -0.18 28.59, 0 0" stroke="#000000" stroke-width="1" fill="none"></path></g><g stroke-linecap="round"><g transform="translate(1013.2836322179926 248.81958472792235) rotate(0 -3.076774099999966 13.448499999999996)"><path d="M0 0 C-2.96 4.77, -4.28 11.55, -12.73 25.47 M0 0 C-4.83 9.07, -9.62 18.63, -12.73 25.47 M-12.73 25.47 C-8.35 26.16, -3.41 26.17, -0.52 26.9 M-12.73 25.47 C-10.06 25.49, -6.84 26.16, -0.52 26.9 M-0.52 26.9 C1.48 22.38, 4.16 19.26, 6.58 13.18 M-0.52 26.9 C1.11 23.22, 2.88 19.48, 6.58 13.18 M6.58 13.18 C4.03 9.19, 2.48 4.5, 0.9 0.56 M6.58 13.18 C4.94 9.42, 3.62 6.12, 0.9 0.56" stroke="#ffffff" stroke-width="2" fill="none"></path></g></g><mask></mask><g stroke-linecap="round"><g transform="translate(1037.7703524179926 264.7165847279223) rotate(0 -12.74628000000007 -11)"><path d="M0 0 C-3.09 -7.98, -7.48 -16.93, -14.96 -32.42 M0 0 C-4.1 -8.58, -7.15 -16.5, -14.96 -32.42 M-14.96 -32.42 C-19.47 -33.07, -23.74 -33.03, -29.17 -33 M-14.96 -32.42 C-19.62 -32.62, -24.9 -32.65, -29.17 -33 M-29.17 -33 C-29.04 -30.67, -29.76 -28.98, -30.18 -23 M-29.17 -33 C-29.79 -29.68, -29.78 -26.2, -30.18 -23 M-30.18 -23 C-28.34 -22.73, -26.36 -22.66, -22.9 -22 M-30.18 -23 C-28.19 -22.65, -26.48 -22.33, -22.9 -22 M-22.9 -22 C-16.5 -9.12, -11.74 4.15, -7.87 10.42 M-22.9 -22 C-18.21 -11.5, -13.05 -1.58, -7.87 10.42 M-7.87 10.42 C-5.04 10.97, -2.6 10.8, 3.69 11 M-7.87 10.42 C-4.53 10.62, -0.84 10.8, 3.69 11 M3.69 11 C3.86 8.18, 3.87 6.1, 4.69 1 M3.69 11 C4.06 6.99, 4.51 2.82, 4.69 1 M4.69 1 C4.35 0.71, 4.05 0.31, 3.69 0 M4.69 1 C4.45 0.8, 4.25 0.58, 3.69 0" stroke="#ffffff" stroke-width="2" fill="none"></path></g></g><mask></mask><g transform="translate(934.9282624001551 289.6263291283974) rotate(0 84.79993438720703 10)"><text x="84.79993438720703" y="14.016" font-family="Virgil, Segoe UI Emoji" font-size="16px" fill="#000000" text-anchor="middle" style="white-space: pre;" direction="ltr" dominant-baseline="alphabetic">file-content-processor</text></g><g stroke-linecap="round" transform="translate(755.6531564067786 10) rotate(0 32.54042053222645 32.540420532226506)"><path d="M0.17 -1.39 L66.33 0.4 L64.46 66.06 L-0.28 65.74" stroke="none" stroke-width="0" fill="#40c057"></path><path d="M0 0 C25.06 -1.58, 50.55 -1.93, 65.08 0 M0 0 C17.03 -1.03, 34.42 -0.82, 65.08 0 M65.08 0 C65.61 14.07, 62.82 31.76, 65.08 65.08 M65.08 0 C64.09 20.72, 64.43 42.27, 65.08 65.08 M65.08 65.08 C42.54 63.66, 18.34 63.06, 0 65.08 M65.08 65.08 C47.1 64.26, 30.34 64.86, 0 65.08 M0 65.08 C-0.84 44.86, -0.69 26.73, 0 0 M0 65.08 C0.88 42.75, -0.98 20.29, 0 0" stroke="#00000000" stroke-width="1" fill="none"></path></g><g stroke-linecap="round" transform="translate(754.7820635143428 14.924569603520581) rotate(0 32.54042053222656 32.540420532226506)"><path d="M0 0 C0 0, 0 0, 0 0 M0 0 C0 0, 0 0, 0 0 M-0.26 6.4 C1.04 4.57, 3.29 2.79, 4.99 0.36 M-0.26 6.4 C0.91 4.63, 1.96 3.42, 4.99 0.36 M0.13 12.04 C4.08 7.09, 8.62 1.14, 10.63 -0.03 M0.13 12.04 C3.81 8.57, 7.85 3.72, 10.63 -0.03 M-0.13 18.44 C1.61 14.73, 6.09 10.41, 15.62 0.33 M-0.13 18.44 C3.2 14.09, 8.48 9.49, 15.62 0.33 M0.27 24.08 C5.78 16.79, 8.39 13.33, 21.26 -0.07 M0.27 24.08 C7.04 17.24, 12.46 9.15, 21.26 -0.07 M0 30.48 C10.91 17.84, 19.69 5.49, 26.25 0.29 M0 30.48 C8.06 21.17, 16.7 11.3, 26.25 0.29 M-0.26 36.88 C10.94 23.87, 21.06 8.18, 31.89 -0.1 M-0.26 36.88 C10.68 24.72, 21.07 12.63, 31.89 -0.1 M0.14 42.52 C10.46 32.44, 20.6 16.4, 36.88 0.26 M0.14 42.52 C8.55 33.08, 17.84 21.82, 36.88 0.26 M-0.12 48.92 C16.43 33.12, 28.36 12.78, 42.52 -0.14 M-0.12 48.92 C9.5 38.55, 19.22 26.97, 42.52 -0.14 M0.27 54.56 C13.13 42.38, 21.49 28.23, 47.51 0.22 M0.27 54.56 C17.82 35.33, 32.65 16.23, 47.51 0.22 M0.01 60.96 C15.05 45.08, 27.43 29.5, 53.15 -0.17 M0.01 60.96 C15.76 42.85, 31.46 25.22, 53.15 -0.17 M1.06 65.85 C20.61 41.99, 45.07 14.59, 58.14 0.19 M1.06 65.85 C20.44 43.25, 39.15 23.32, 58.14 0.19 M6.05 66.21 C17.76 51.53, 30.23 38.63, 63.78 -0.21 M6.05 66.21 C26.58 41.87, 48.39 18.13, 63.78 -0.21 M11.69 65.81 C25.01 54.1, 36.19 40.52, 67.46 1.66 M11.69 65.81 C32.81 40.42, 56.36 16.13, 67.46 1.66 M16.68 66.17 C33.27 43.73, 52.17 25.36, 67.19 8.06 M16.68 66.17 C27.72 53.23, 39.47 40.83, 67.19 8.06 M22.32 65.78 C39.59 45.68, 56.25 25.06, 66.93 14.46 M22.32 65.78 C35.34 49.83, 48.01 35.19, 66.93 14.46 M27.31 66.14 C42.28 50.08, 57.34 31.44, 67.33 20.1 M27.31 66.14 C35.37 56.59, 44.19 47.47, 67.33 20.1 M32.95 65.74 C43.64 52.89, 52.71 42.64, 67.07 26.5 M32.95 65.74 C44.95 52.78, 55.79 39.29, 67.07 26.5 M37.94 66.1 C45.25 54.18, 56.38 47.02, 67.46 32.14 M37.94 66.1 C48.91 52.41, 59.35 40.21, 67.46 32.14 M43.58 65.71 C51.91 54.86, 60.3 43.63, 67.2 38.54 M43.58 65.71 C52.15 56.58, 59.95 48.27, 67.2 38.54 M48.57 66.07 C52.98 60.12, 62.34 51.22, 66.94 44.94 M48.57 66.07 C54.15 59.38, 59.47 52.08, 66.94 44.94 M54.21 65.67 C59.55 61.26, 62.54 56.72, 67.33 50.58 M54.21 65.67 C57.19 62.08, 61.73 56.85, 67.33 50.58 M59.2 66.03 C61.1 61.9, 63.95 59.23, 67.07 56.98 M59.2 66.03 C62.29 62.84, 64.55 59.5, 67.07 56.98" stroke="#40c057" stroke-width="0.5" fill="none"></path><path d="M0 0 C24.49 -1, 50.79 2.2, 65.08 0 M0 0 C22.8 -0.05, 44.5 -0.23, 65.08 0 M65.08 0 C63.59 18.66, 65.79 33.81, 65.08 65.08 M65.08 0 C63.83 24.56, 65.04 47.42, 65.08 65.08 M65.08 65.08 C46.2 62.69, 26.91 65.55, 0 65.08 M65.08 65.08 C45.8 64.28, 25.5 64.39, 0 65.08 M0 65.08 C-0.47 50.09, 1.26 32.16, 0 0 M0 65.08 C-1.53 40.8, -0.52 14.94, 0 0" stroke="#000000" stroke-width="1" fill="none"></path></g><g stroke-linecap="round" transform="translate(768.3949186920017 25.991665629036277) rotate(0 19.55281575520837 5.376997727614182)"><path d="M23.77 0.25 C27.61 0.39, 32.53 0.96, 35.02 1.83 C37.51 2.71, 38.9 4.34, 38.72 5.51 C38.55 6.68, 36.88 7.9, 33.98 8.84 C31.07 9.78, 25.49 10.98, 21.3 11.15 C17.12 11.32, 12.21 10.63, 8.85 9.84 C5.49 9.05, 2.35 7.57, 1.14 6.42 C-0.07 5.27, -0.08 3.84, 1.59 2.92 C3.26 1.99, 7.37 1.32, 11.18 0.86 C14.99 0.39, 22.11 0.27, 24.44 0.13 C26.78 -0.02, 25.25 -0.03, 25.19 -0.01 M17.89 -0.62 C21.85 -0.81, 27.97 0.07, 31.41 0.83 C34.86 1.6, 37.66 2.87, 38.56 3.96 C39.46 5.05, 38.66 6.37, 36.8 7.37 C34.95 8.38, 31.12 9.4, 27.45 9.99 C23.78 10.58, 18.79 11.07, 14.79 10.91 C10.78 10.74, 5.76 9.97, 3.42 8.99 C1.09 8.02, 0.49 6.24, 0.8 5.05 C1.1 3.86, 2.34 2.78, 5.24 1.85 C8.14 0.93, 15.97 -0.24, 18.2 -0.51 C20.44 -0.77, 18.66 0.03, 18.64 0.27" stroke="#ffffff" stroke-width="2" fill="none"></path></g><g stroke-linecap="round"><g transform="translate(768.7528351082681 31.870133677914453) rotate(0 19.147886618589723 20.243310703375386)"><path d="M1.13 0.57 C1.89 5.86, 2.77 25.15, 3.75 31.29 C4.72 37.42, 4.38 35.98, 7.01 37.37 C9.63 38.77, 15.34 39.38, 19.52 39.65 C23.69 39.92, 29.51 40.46, 32.06 38.99 C34.61 37.52, 33.59 37.3, 34.8 30.86 C36.01 24.41, 38.75 5.32, 39.33 0.33 M0.27 -0.18 C0.93 5.28, 1.73 25.95, 2.74 32.37 C3.76 38.8, 3.6 37.04, 6.36 38.37 C9.13 39.69, 14.72 40.1, 19.33 40.32 C23.93 40.54, 31.24 40.93, 34 39.69 C36.77 38.46, 35.44 39.67, 35.92 32.91 C36.39 26.14, 36.64 4.43, 36.85 -0.89" stroke="#ffffff" stroke-width="2" fill="none"></path></g></g><mask></mask><g stroke-linecap="round" transform="translate(785.5231231942057 42.132632856287444) rotate(0 2.349090576171875 2.349090576171875)"><path d="M2.68 0.12 C3.14 0.1, 3.82 0.34, 4.1 0.69 C4.39 1.03, 4.38 1.63, 4.39 2.18 C4.4 2.73, 4.42 3.61, 4.15 3.98 C3.88 4.36, 3.27 4.4, 2.79 4.43 C2.31 4.46, 1.72 4.44, 1.28 4.19 C0.83 3.93, 0.35 3.33, 0.12 2.88 C-0.1 2.42, -0.28 1.87, -0.06 1.44 C0.16 1, 1.04 0.51, 1.45 0.27 C1.87 0.03, 2.24 0, 2.45 -0.02 C2.66 -0.05, 2.72 0.03, 2.71 0.11 M2.65 0.32 C3.14 0.2, 3.41 -0.28, 3.73 0.06 C4.05 0.39, 4.5 1.76, 4.55 2.34 C4.59 2.92, 4.26 3.16, 4.01 3.52 C3.77 3.88, 3.54 4.34, 3.1 4.48 C2.67 4.63, 1.84 4.59, 1.4 4.38 C0.96 4.17, 0.68 3.57, 0.48 3.22 C0.27 2.88, 0.09 2.79, 0.17 2.3 C0.24 1.81, 0.56 0.61, 0.92 0.29 C1.28 -0.04, 2.07 0.45, 2.32 0.35 C2.57 0.25, 2.49 -0.33, 2.41 -0.31" stroke="none" stroke-width="0" fill="#ffffff"></path><path d="M2.19 -0.13 C2.73 -0.13, 3.72 0.04, 4.08 0.44 C4.44 0.85, 4.32 1.78, 4.37 2.3 C4.43 2.83, 4.59 3.25, 4.41 3.58 C4.23 3.9, 3.8 4.14, 3.3 4.26 C2.81 4.38, 1.92 4.42, 1.45 4.32 C0.98 4.22, 0.76 4.07, 0.5 3.65 C0.25 3.24, -0.15 2.39, -0.06 1.83 C0.02 1.27, 0.61 0.63, 1.03 0.28 C1.45 -0.08, 2.22 -0.31, 2.44 -0.32 C2.67 -0.34, 2.39 0.13, 2.39 0.2 M2.05 -0.05 C2.44 -0.16, 2.95 -0.12, 3.36 0.12 C3.77 0.37, 4.26 0.87, 4.51 1.42 C4.77 1.98, 5.08 2.9, 4.91 3.46 C4.74 4.03, 3.92 4.6, 3.49 4.82 C3.06 5.04, 2.9 4.93, 2.33 4.79 C1.75 4.66, 0.42 4.5, 0.04 4.02 C-0.34 3.54, -0.1 2.45, 0.04 1.93 C0.19 1.4, 0.61 1.16, 0.91 0.88 C1.22 0.6, 1.69 0.38, 1.86 0.27 C2.04 0.16, 1.88 0.29, 1.96 0.23" stroke="#ffffff" stroke-width="1" fill="none"></path></g><g stroke-linecap="round"><g transform="translate(788.0132416024087 44.70562327376791) rotate(0 11.623458862304688 5.76556854248048)"><path d="M0.11 -0.28 C1.22 0.96, 3.86 5.04, 6.64 7.05 C9.42 9.07, 14.12 11.37, 16.79 11.8 C19.46 12.23, 21.51 10.61, 22.66 9.65 C23.82 8.68, 24.51 7.25, 23.72 6 C22.93 4.74, 18.99 2.84, 17.94 2.12 M-0.5 0.76 C0.79 2.1, 4.88 5.87, 7.68 7.56 C10.48 9.24, 13.83 10.49, 16.33 10.88 C18.82 11.26, 21.48 10.67, 22.64 9.89 C23.8 9.12, 23.97 7.57, 23.29 6.23 C22.61 4.89, 19.55 2.7, 18.57 1.84" stroke="#ffffff" stroke-width="2" fill="none"></path></g></g><mask></mask><g transform="translate(745.0677668115554 83.47641130956703) rotate(0 42.7039794921875 10)"><text x="42.7039794921875" y="14.016" font-family="Virgil, Segoe UI Emoji" font-size="16px" fill="#000000" text-anchor="middle" style="white-space: pre;" direction="ltr" dominant-baseline="alphabetic">Amazon S3</text></g><g stroke-linecap="round" transform="translate(760.68131310892 217.53608399289385) rotate(0 32.54042053222656 32.540420532226506)"><path d="M1.63 -0.14 L65.65 -0.05 L64.42 63.22 L-0.69 64.88" stroke="none" stroke-width="0" fill="#e64980"></path><path d="M0 0 C16 -0.69, 28.22 1.98, 65.08 0 M0 0 C19.83 -0.51, 40.96 0.24, 65.08 0 M65.08 0 C65.65 21.98, 64.78 44.71, 65.08 65.08 M65.08 0 C65.04 16.79, 65.92 35.03, 65.08 65.08 M65.08 65.08 C44.2 64.51, 24.41 66.32, 0 65.08 M65.08 65.08 C43.39 65.89, 18.91 66.05, 0 65.08 M0 65.08 C0.85 44.39, 1.43 24.67, 0 0 M0 65.08 C-1.07 43.15, 0.54 22.05, 0 0" stroke="#00000000" stroke-width="1" fill="none"></path></g><g stroke-linecap="round" transform="translate(756.4695588866064 217.1386921673169) rotate(0 32.54042053222656 32.540420532226506)"><path d="M0 0 C0 0, 0 0, 0 0 M0 0 C0 0, 0 0, 0 0 M-0.26 6.4 C1.71 3.92, 3.98 0.95, 4.99 0.36 M-0.26 6.4 C1.58 4.66, 3.6 2.24, 4.99 0.36 M0.13 12.04 C1.08 9.61, 4.21 6.67, 10.63 -0.03 M0.13 12.04 C2.25 9.18, 5.94 6.11, 10.63 -0.03 M-0.13 18.44 C4.15 12.61, 5.52 10.57, 15.62 0.33 M-0.13 18.44 C5.1 13.45, 8.95 7.17, 15.62 0.33 M0.27 24.08 C9.14 13.78, 15.86 3.8, 21.26 -0.07 M0.27 24.08 C6.59 16.67, 13.54 8.75, 21.26 -0.07 M0 30.48 C9.13 19.94, 17.14 6.69, 26.25 0.29 M0 30.48 C8.95 20.58, 17.33 10.8, 26.25 0.29 M-0.26 36.88 C8.69 28.3, 17.49 13.8, 31.89 -0.1 M-0.26 36.88 C7.08 28.67, 15.27 18.67, 31.89 -0.1 M0.14 42.52 C14.66 29.17, 24.51 11.21, 36.88 0.26 M0.14 42.52 C8.34 33.71, 16.69 23.71, 36.88 0.26 M-0.12 48.92 C11.64 37.93, 18.95 24.98, 42.52 -0.14 M-0.12 48.92 C15.79 31.55, 29.02 14.29, 42.52 -0.14 M0.27 54.56 C13.79 40.51, 24.6 26.73, 47.51 0.22 M0.27 54.56 C14.25 38.4, 28.24 22.75, 47.51 0.22 M0.01 60.96 C18.08 38.87, 41.02 13.22, 53.15 -0.17 M0.01 60.96 C18.09 39.87, 35.52 21.42, 53.15 -0.17 M1.72 65.09 C13.17 50.74, 25.36 38.16, 58.14 0.19 M1.72 65.09 C21.77 41.3, 43.11 18.11, 58.14 0.19 M6.7 65.45 C20.3 53.44, 31.75 39.56, 63.78 -0.21 M6.7 65.45 C28.34 39.46, 52.4 14.58, 63.78 -0.21 M12.35 65.06 C29.87 41.51, 49.72 22.03, 65.49 3.93 M12.35 65.06 C24.01 51.44, 36.34 38.37, 65.49 3.93 M17.33 65.42 C36.12 43.56, 54.31 21.2, 65.88 9.57 M17.33 65.42 C31.49 48.11, 45.34 32.11, 65.88 9.57 M22.98 65.02 C38.92 47.89, 54.93 28.16, 65.62 15.97 M22.98 65.02 C31.56 54.84, 40.92 45.09, 65.62 15.97 M27.96 65.38 C39.88 51.16, 50.16 39.52, 66.02 21.61 M27.96 65.38 C41.31 50.9, 53.48 35.89, 66.02 21.61 M33.61 64.99 C41.71 52.14, 53.63 44.07, 65.75 28.01 M33.61 64.99 C45.54 50.16, 56.95 36.85, 65.75 28.01 M38.59 65.35 C48.22 53.03, 57.9 40.3, 65.49 34.41 M38.59 65.35 C48.24 54.94, 57.14 45.37, 65.49 34.41 M44.24 64.95 C49.76 57.72, 60.26 47.51, 65.89 40.05 M44.24 64.95 C50.82 57.08, 57.14 48.64, 65.89 40.05 M49.22 65.31 C55.67 59.63, 59.78 53.8, 65.63 46.45 M49.22 65.31 C53.07 60.72, 58.45 54.51, 65.63 46.45 M54.87 64.92 C57.57 59.06, 61.59 55.29, 66.02 52.09 M54.87 64.92 C59.25 60.4, 62.46 55.66, 66.02 52.09 M59.85 65.28 C61.82 64, 62.95 60.85, 65.76 58.49 M59.85 65.28 C60.71 63.74, 62.54 62.39, 65.76 58.49" stroke="#e64980" stroke-width="0.5" fill="none"></path><path d="M0 0 C15.13 2.03, 34.28 0.23, 65.08 0 M0 0 C23.25 0.72, 48.35 -0.3, 65.08 0 M65.08 0 C65.26 16.84, 64.76 38.5, 65.08 65.08 M65.08 0 C65.4 19.57, 64.93 39.5, 65.08 65.08 M65.08 65.08 C47.77 66.53, 32.97 65.14, 0 65.08 M65.08 65.08 C39.43 65.72, 15.72 64.58, 0 65.08 M0 65.08 C0.85 41.22, 0.53 19.05, 0 0 M0 65.08 C1.36 49.66, 1.27 33.56, 0 0" stroke="#000000" stroke-width="1" fill="none"></path></g><g stroke-linecap="round" transform="translate(764.6532103546344 246.24536667072232) rotate(0 4.058960227902503 4.058960227902475)"><path d="M4.01 -0.21 C4.84 -0.18, 6.22 0.54, 6.87 1.13 C7.53 1.71, 7.8 2.51, 7.94 3.29 C8.08 4.08, 8.13 5.13, 7.72 5.84 C7.3 6.55, 6.31 7.17, 5.46 7.54 C4.6 7.9, 3.41 8.29, 2.6 8.03 C1.78 7.78, 1.04 6.74, 0.57 6 C0.1 5.25, -0.36 4.39, -0.23 3.56 C-0.1 2.72, 0.63 1.61, 1.35 0.99 C2.07 0.37, 3.64 0.01, 4.1 -0.15 C4.55 -0.31, 4.11 -0.1, 4.09 0.04 M4.84 0.16 C5.59 0.14, 5.89 0.86, 6.44 1.39 C6.99 1.92, 7.93 2.48, 8.14 3.33 C8.35 4.17, 8.24 5.65, 7.71 6.46 C7.19 7.27, 5.89 7.97, 4.99 8.22 C4.08 8.46, 3.02 8.37, 2.3 7.92 C1.59 7.47, 1.1 6.35, 0.68 5.51 C0.25 4.68, -0.47 3.67, -0.22 2.91 C0.03 2.14, 1.32 1.39, 2.16 0.9 C2.99 0.42, 4.39 0.12, 4.79 -0.02 C5.18 -0.16, 4.62 0.09, 4.52 0.08" stroke="#ffffff" stroke-width="2" fill="none"></path></g><g stroke-linecap="round" transform="translate(805.710977404254 246.17193157725671) rotate(0 4.058960227902503 4.058960227902475)"><path d="M3.64 0.25 C4.43 0.09, 5.29 0.16, 6.02 0.54 C6.75 0.91, 7.72 1.73, 8.02 2.5 C8.33 3.27, 8.19 4.3, 7.84 5.18 C7.49 6.05, 6.7 7.29, 5.94 7.75 C5.19 8.21, 4.2 8.09, 3.31 7.93 C2.43 7.78, 1.2 7.46, 0.63 6.8 C0.06 6.15, -0.13 4.95, -0.08 4.02 C-0.03 3.1, 0.37 1.92, 0.94 1.25 C1.51 0.58, 2.93 0.14, 3.35 -0.01 C3.78 -0.16, 3.42 0.28, 3.48 0.36 M4.13 0.26 C4.89 0.24, 6.38 0.36, 7.1 0.98 C7.81 1.6, 8.42 3.02, 8.43 3.99 C8.43 4.96, 7.71 6.08, 7.12 6.78 C6.52 7.48, 5.64 8.09, 4.86 8.19 C4.08 8.29, 3.28 7.82, 2.46 7.36 C1.64 6.91, 0.26 6.2, -0.05 5.47 C-0.35 4.74, 0.25 3.79, 0.64 2.98 C1.03 2.17, 1.61 1.09, 2.29 0.6 C2.98 0.1, 4.39 0.18, 4.74 0.02 C5.1 -0.13, 4.48 -0.41, 4.42 -0.35" stroke="#ffffff" stroke-width="2" fill="none"></path></g><g stroke-linecap="round"><g transform="translate(781.6344317006772 242.5649714162281) rotate(0 0.7141117199084874 7.450742628495675)"><path d="M-0.53 -0.04 C-0.33 0.55, 0.71 2.65, 1.19 3.89 C1.67 5.13, 2.36 6.11, 2.37 7.43 C2.37 8.75, 1.8 10.57, 1.24 11.81 C0.68 13.05, -0.59 14.39, -0.99 14.88 M0.2 -0.53 C0.58 -0.13, 1.91 1.71, 2.24 3.12 C2.57 4.53, 2.34 6.38, 2.18 7.93 C2.03 9.48, 1.72 11.24, 1.32 12.43 C0.93 13.61, 0.17 14.75, -0.18 15.05" stroke="#ffffff" stroke-width="2" fill="none"></path></g></g><mask></mask><g stroke-linecap="round"><g transform="translate(788.1959274194153 236.63781238314016) rotate(89.99999999999994 0.7141117199084874 7.450742628495675)"><path d="M-0.35 0.37 C0.05 0.93, 1.47 2.08, 1.86 3.33 C2.24 4.57, 2.14 6.46, 1.98 7.83 C1.83 9.21, 1.45 10.42, 0.93 11.57 C0.41 12.72, -0.94 14.18, -1.15 14.74 M0.48 0.09 C0.88 0.73, 1.4 2.8, 1.59 3.93 C1.78 5.06, 1.72 5.52, 1.6 6.88 C1.48 8.23, 1.19 10.74, 0.85 12.06 C0.51 13.39, -0.08 14.44, -0.43 14.84" stroke="#ffffff" stroke-width="2" fill="none"></path></g></g><mask></mask><g stroke-linecap="round"><g transform="translate(794.1303313176634 243.1566574821635) rotate(180 0.7141117199084874 7.450742628495675)"><path d="M0.32 -0.19 C0.62 0.37, 1.25 2.44, 1.47 3.73 C1.7 5.03, 1.79 6.31, 1.67 7.59 C1.55 8.88, 1.1 10.21, 0.77 11.44 C0.43 12.66, -0.11 14.43, -0.37 14.93 M-0.18 -0.76 C0.08 -0.4, 0.51 1.39, 1.01 2.88 C1.51 4.37, 2.87 6.68, 2.8 8.18 C2.73 9.68, 1.22 10.7, 0.6 11.86 C-0.02 13.01, -0.77 14.53, -0.91 15.12" stroke="#ffffff" stroke-width="2" fill="none"></path></g></g><mask></mask><g stroke-linecap="round"><g transform="translate(787.5779298916948 249.10467140137382) rotate(270 0.7141117199084874 7.450742628495675)"><path d="M-0.06 0.22 C0.08 0.83, 0.9 2.29, 1.16 3.49 C1.42 4.7, 1.44 6.1, 1.51 7.46 C1.57 8.81, 1.94 10.46, 1.55 11.62 C1.17 12.78, -0.49 13.91, -0.8 14.43 M-0.76 -0.15 C-0.47 0.57, 1.65 2.83, 2.21 4.18 C2.76 5.53, 2.62 6.65, 2.55 7.97 C2.48 9.3, 2.2 11.07, 1.79 12.14 C1.38 13.2, 0.6 14.02, 0.1 14.37" stroke="#ffffff" stroke-width="2" fill="none"></path></g></g><mask></mask><g stroke-linecap="round"><g transform="translate(774.7978860336 250.31909146049009) rotate(0 2.921236942186397 0.05106437702113453)"><path d="M0 0 C1.67 -0.19, 3.3 0.07, 5.82 -0.05 M0 0 C1.82 -0.02, 3.55 -0.03, 5.82 -0.05 M5.82 -0.05 C5.12 -0.59, 4.58 -1.31, 3.25 -2.53 M5.82 -0.05 C4.78 -0.97, 3.87 -1.98, 3.25 -2.53 M3.25 -2.53 C4.25 -1.65, 5.17 -0.66, 5.84 -0.05 M3.25 -2.53 C3.93 -1.91, 4.55 -1.33, 5.84 -0.05 M5.84 -0.05 C4.8 0.79, 3.98 1.78, 3.04 2.63 M5.84 -0.05 C4.97 0.73, 4.13 1.49, 3.04 2.63" stroke="#ffffff" stroke-width="2" fill="none"></path></g></g><mask></mask><g stroke-linecap="round"><g transform="translate(797.3917346605378 250.44196192212723) rotate(0 2.921236942186397 0.05106437702113453)"><path d="M0 0 C1.3 0.09, 2.71 -0.07, 5.82 -0.05 M0 0 C1.26 -0.02, 2.46 -0.06, 5.82 -0.05 M5.82 -0.05 C5.14 -0.75, 4.45 -1.36, 3.25 -2.53 M5.82 -0.05 C4.99 -0.91, 4.18 -1.67, 3.25 -2.53 M3.25 -2.53 C3.99 -1.8, 4.58 -1.28, 5.84 -0.05 M3.25 -2.53 C4.02 -1.86, 4.69 -1.18, 5.84 -0.05 M5.84 -0.05 C5.07 0.73, 4.32 1.3, 3.04 2.63 M5.84 -0.05 C4.89 0.76, 4.03 1.71, 3.04 2.63" stroke="#ffffff" stroke-width="2" fill="none"></path></g></g><mask></mask><g stroke-linecap="round"><g transform="translate(768.67660433783 246.28918605324168) rotate(0 20.67481640637584 -8.390257953829632)"><path d="M0.54 0.05 C1.1 -1.33, 0.76 -6.44, 2.16 -8.68 C3.55 -10.92, 6.75 -12.12, 8.92 -13.4 C11.09 -14.68, 13.09 -15.68, 15.17 -16.36 C17.25 -17.05, 18.99 -17.65, 21.39 -17.51 C23.79 -17.36, 27.09 -16.67, 29.59 -15.5 C32.09 -14.33, 34.72 -12.35, 36.4 -10.49 C38.08 -8.63, 38.65 -6.17, 39.66 -4.34 C40.67 -2.5, 42.37 -0.33, 42.46 0.51 M-0.63 -0.96 C-0.17 -2.21, -0.53 -5.8, 0.99 -7.68 C2.52 -9.56, 6.09 -10.96, 8.5 -12.24 C10.91 -13.52, 12.99 -14.48, 15.46 -15.35 C17.93 -16.21, 20.71 -17.17, 23.29 -17.41 C25.87 -17.65, 29.15 -17.76, 30.92 -16.79 C32.68 -15.81, 32.57 -13.64, 33.87 -11.54 C35.16 -9.44, 37.43 -5.99, 38.68 -4.18 C39.93 -2.37, 41.08 -1.47, 41.37 -0.69" stroke="#ffffff" stroke-width="2" fill="none"></path></g></g><mask></mask><g stroke-linecap="round"><g transform="translate(768.4229469648183 270.9767697253925) rotate(180 20.67481640637584 -8.390257953829632)"><path d="M-0.4 -1.02 C0.04 -2.36, 1.75 -5.92, 3.21 -7.96 C4.67 -10, 6.46 -11.8, 8.35 -13.27 C10.24 -14.73, 12.3 -16.06, 14.54 -16.76 C16.78 -17.45, 19.09 -17.79, 21.78 -17.41 C24.47 -17.03, 28.38 -15.68, 30.67 -14.46 C32.97 -13.25, 33.89 -11.69, 35.56 -10.11 C37.23 -8.52, 39.91 -6.75, 40.69 -4.95 C41.46 -3.15, 40.11 -0.01, 40.24 0.7 M1.58 1.06 C1.88 -0.1, 1.6 -4.4, 2.6 -6.58 C3.61 -8.76, 5.64 -10.48, 7.62 -12.04 C9.61 -13.6, 12.4 -15.07, 14.5 -15.95 C16.6 -16.82, 17.82 -17.39, 20.22 -17.27 C22.63 -17.14, 26.24 -16.26, 28.91 -15.2 C31.58 -14.15, 34.36 -12.63, 36.25 -10.95 C38.14 -9.27, 39.35 -6.87, 40.24 -5.11 C41.14 -3.35, 41.3 -1, 41.64 -0.4" stroke="#ffffff" stroke-width="2" fill="none"></path></g></g><mask></mask><g transform="translate(741.250000170786 286.19288023706247) rotate(0 47.759979248046875 10)"><text x="47.759979248046875" y="14.016" font-family="Virgil, Segoe UI Emoji" font-size="16px" fill="#000000" text-anchor="middle" style="white-space: pre;" direction="ltr" dominant-baseline="alphabetic">Amazon SQS</text></g><g stroke-linecap="round" transform="translate(368.49067620946266 411.06602718461085) rotate(0 32.2305761824785 32.199712367130076)"><path d="M-0.6 0.14 L66.02 1.28 L64.22 62.66 L-0.4 66.34" stroke="none" stroke-width="0" fill="#fd7e14"></path><path d="M0 0 C22.55 -0.96, 44.73 -0.31, 64.46 0 M0 0 C16.9 0.49, 34.58 -0.02, 64.46 0 M64.46 0 C63.36 14.59, 65.15 26.06, 64.46 64.4 M64.46 0 C64.94 21.88, 63.67 44.66, 64.46 64.4 M64.46 64.4 C39.15 65.5, 14.07 64.27, 0 64.4 M64.46 64.4 C51.61 64.26, 37.08 64.49, 0 64.4 M0 64.4 C-1.02 48.46, 2.04 34.01, 0 0 M0 64.4 C0.17 49.82, 0.53 36.73, 0 0" stroke="#00000000" stroke-width="2" fill="none"></path></g><g stroke-linecap="round" transform="translate(366.0802843347867 415.8260377435759) rotate(0 32.2305761824785 32.199712367130076)"><path d="M0 0 C0 0, 0 0, 0 0 M0 0 C0 0, 0 0, 0 0 M-0.26 6.4 C1.68 4.85, 3.66 1.59, 4.99 0.36 M-0.26 6.4 C1.08 5.4, 2.18 4.07, 4.99 0.36 M0.13 12.04 C3.78 7.74, 6.49 4.6, 10.63 -0.03 M0.13 12.04 C2.38 8.27, 5.24 5.85, 10.63 -0.03 M-0.13 18.44 C5.25 14.86, 7.97 9.37, 15.62 0.33 M-0.13 18.44 C3.94 13.39, 7.28 10.34, 15.62 0.33 M0.27 24.08 C4.08 16.29, 10.21 13.64, 21.26 -0.07 M0.27 24.08 C5.96 17.75, 10.27 13.15, 21.26 -0.07 M0 30.48 C10.24 22.14, 19.6 12.07, 26.25 0.29 M0 30.48 C5.95 22.83, 12.16 17.03, 26.25 0.29 M-0.26 36.88 C4.83 28.41, 14.93 21.28, 31.89 -0.1 M-0.26 36.88 C7.62 27.6, 17.42 17.44, 31.89 -0.1 M0.14 42.52 C9.21 34.7, 16.64 25.9, 36.88 0.26 M0.14 42.52 C9.55 30.16, 20.51 18.09, 36.88 0.26 M-0.12 48.92 C14.53 34.83, 24.5 20, 42.52 -0.14 M-0.12 48.92 C13.89 33.25, 28.51 15.92, 42.52 -0.14 M0.27 54.56 C19.11 35.41, 34.59 14.66, 47.51 0.22 M0.27 54.56 C14.9 37.66, 29.95 19.42, 47.51 0.22 M0.01 60.96 C17.78 37.4, 40.27 17.64, 53.15 -0.17 M0.01 60.96 C19.81 37.87, 38.87 14.74, 53.15 -0.17 M1.06 65.85 C23.43 41.52, 41.79 15.24, 58.14 0.19 M1.06 65.85 C14.25 49.23, 29.08 32.47, 58.14 0.19 M6.7 65.45 C21.85 47.43, 36.95 29.59, 63.78 -0.21 M6.7 65.45 C23.59 47.71, 38.36 29.1, 63.78 -0.21 M11.69 65.81 C23.16 48.49, 38.79 34.49, 66.8 2.42 M11.69 65.81 C31.29 45.85, 49.13 24.24, 66.8 2.42 M17.33 65.42 C34.85 42.97, 53.74 22.22, 67.19 8.06 M17.33 65.42 C28.23 51.74, 40.76 38.59, 67.19 8.06 M22.32 65.78 C33.58 53.05, 44.26 37.05, 66.93 14.46 M22.32 65.78 C36.78 49.34, 51.46 30.72, 66.93 14.46 M27.96 65.38 C39.06 51.78, 48.69 40.17, 66.67 20.86 M27.96 65.38 C36.51 56.78, 44.81 47.09, 66.67 20.86 M32.95 65.74 C46.24 49.83, 56.05 37.76, 67.07 26.5 M32.95 65.74 C45.21 52.48, 57.48 37.46, 67.07 26.5 M38.59 65.35 C46.8 56.02, 54.94 48.51, 66.8 32.9 M38.59 65.35 C45.64 57.48, 53.18 48.32, 66.8 32.9 M43.58 65.71 C53.05 56.92, 60.35 43.55, 67.2 38.54 M43.58 65.71 C51.35 57.14, 57.58 50.39, 67.2 38.54 M49.22 65.31 C55.71 59.02, 59.76 55.54, 66.94 44.94 M49.22 65.31 C53.1 60.52, 57.28 54.96, 66.94 44.94 M54.21 65.67 C56.89 59.55, 61.62 55.38, 66.68 51.34 M54.21 65.67 C58.5 60.74, 61.14 57, 66.68 51.34 M59.85 65.28 C61.75 62.48, 64.07 59.97, 67.07 56.98 M59.85 65.28 C62.42 62.79, 64.62 60.32, 67.07 56.98" stroke="#fd7e14" stroke-width="0.5" fill="none"></path><path d="M0 0 C18.82 0.03, 38.73 1.83, 64.46 0 M0 0 C23.33 -0.23, 43.88 -0.07, 64.46 0 M64.46 0 C64.41 19.23, 64.99 39.44, 64.46 64.4 M64.46 0 C64.12 21.17, 65.73 43.18, 64.46 64.4 M64.46 64.4 C39.83 63.93, 13.44 63.89, 0 64.4 M64.46 64.4 C45.1 64.51, 26.41 64.24, 0 64.4 M0 64.4 C2.32 50.98, -1.39 38.12, 0 0 M0 64.4 C0.38 45.8, -0.34 27.72, 0 0" stroke="#000000" stroke-width="1" fill="none"></path></g><g stroke-linecap="round"><g transform="translate(391.07149188523385 442.6030672395179) rotate(0 -3.076774100000023 13.448500000000024)"><path d="M0 0 C-3.68 7.23, -6.05 13, -12.73 25.47 M0 0 C-5.18 9.92, -9.51 19.02, -12.73 25.47 M-12.73 25.47 C-8 25.92, -3.68 26.87, -0.52 26.9 M-12.73 25.47 C-9.51 25.92, -6.58 26.15, -0.52 26.9 M-0.52 26.9 C1.1 22.13, 4.07 18.28, 6.58 13.18 M-0.52 26.9 C1.34 22.84, 3.3 18.66, 6.58 13.18 M6.58 13.18 C4.49 9.89, 3.56 6.87, 0.9 0.56 M6.58 13.18 C5.23 10.5, 4.39 7.99, 0.9 0.56" stroke="#ffffff" stroke-width="2" fill="none"></path></g></g><mask></mask><g stroke-linecap="round"><g transform="translate(415.5582120852339 458.5000672395178) rotate(0 -12.746280000000013 -11)"><path d="M0 0 C-3.75 -9.16, -7.71 -17.59, -14.96 -32.42 M0 0 C-4.73 -10.98, -9.38 -21.19, -14.96 -32.42 M-14.96 -32.42 C-18.55 -32.19, -23.02 -33.24, -29.17 -33 M-14.96 -32.42 C-18.56 -32.58, -22.63 -32.72, -29.17 -33 M-29.17 -33 C-29.54 -30.08, -29.79 -27.99, -30.18 -23 M-29.17 -33 C-29.77 -29.98, -29.96 -26.44, -30.18 -23 M-30.18 -23 C-28.22 -22.69, -26.46 -22.28, -22.9 -22 M-30.18 -23 C-28.02 -22.61, -26.16 -22.61, -22.9 -22 M-22.9 -22 C-18.38 -13.13, -14.41 -4.25, -7.87 10.42 M-22.9 -22 C-18.82 -13.28, -14.93 -5.48, -7.87 10.42 M-7.87 10.42 C-4.67 10.07, -0.41 10.77, 3.69 11 M-7.87 10.42 C-3.49 10.52, 0.48 11.07, 3.69 11 M3.69 11 C3.83 7.34, 4.04 4.16, 4.69 1 M3.69 11 C4 8.63, 4.19 6.61, 4.69 1 M4.69 1 C4.34 0.58, 3.89 0.3, 3.69 0 M4.69 1 C4.36 0.65, 4.05 0.33, 3.69 0" stroke="#ffffff" stroke-width="2" fill="none"></path></g></g><mask></mask><g transform="translate(357.2360881928846 483.40981163999294) rotate(0 40.27996826171875 10)"><text x="40.27996826171875" y="14.016" font-family="Virgil, Segoe UI Emoji" font-size="16px" fill="#000000" text-anchor="middle" style="white-space: pre;" direction="ltr" dominant-baseline="alphabetic">Authorizer</text></g><g stroke-linecap="round" transform="translate(381.7239010143969 210.30878110130203) rotate(0 32.326690673828125 32.326690673828125)"><path d="M-0.52 -0.16 L63.73 -0.82 L65.11 63.15 L0.58 65.72" stroke="none" stroke-width="0" fill="#e64980"></path><path d="M0 0 C20.44 -2.46, 40.61 -0.43, 64.65 0 M0 0 C14.6 0.36, 29.69 0.2, 64.65 0 M64.65 0 C63.74 24.85, 64.88 47.7, 64.65 64.65 M64.65 0 C64.51 18.03, 64.49 37.81, 64.65 64.65 M64.65 64.65 C42.3 62.87, 19.1 62.25, 0 64.65 M64.65 64.65 C48.55 64.42, 32.74 65.14, 0 64.65 M0 64.65 C0.1 44.25, 0.7 26.6, 0 0 M0 64.65 C-0.12 42.09, -0.74 17.73, 0 0" stroke="#00000000" stroke-width="1" fill="none"></path></g><g stroke-linecap="round" transform="translate(375.8867146564562 210.42744722899369) rotate(0 32.326690673828125 32.326690673828125)"><path d="M0 0 C0 0, 0 0, 0 0 M0 0 C0 0, 0 0, 0 0 M-0.26 6.4 C2.06 3.95, 3.3 2.7, 4.99 0.36 M-0.26 6.4 C1.41 4.13, 3.13 2.27, 4.99 0.36 M0.13 12.04 C2.92 8.73, 5.05 7.56, 10.63 -0.03 M0.13 12.04 C4.06 7.05, 6.92 3.56, 10.63 -0.03 M-0.13 18.44 C5.55 11.52, 11.79 6.17, 15.62 0.33 M-0.13 18.44 C4.59 13.72, 6.33 9.6, 15.62 0.33 M0.27 24.08 C8.59 16.33, 13.63 8.24, 21.26 -0.07 M0.27 24.08 C8.58 14.53, 14.65 5.71, 21.26 -0.07 M0 30.48 C8.35 21.49, 14.59 14.32, 26.25 0.29 M0 30.48 C5.99 23.15, 10.95 17.33, 26.25 0.29 M-0.26 36.88 C6.56 26.55, 13.34 19.57, 31.89 -0.1 M-0.26 36.88 C11.87 22.69, 24.18 8.99, 31.89 -0.1 M0.14 42.52 C7.57 33.11, 16.27 24.96, 36.88 0.26 M0.14 42.52 C14.06 27.82, 26.3 12.5, 36.88 0.26 M-0.12 48.92 C10.74 35.36, 26.62 17.66, 42.52 -0.14 M-0.12 48.92 C16.55 29.52, 34.14 10.33, 42.52 -0.14 M0.27 54.56 C12.32 41.63, 25.09 23.96, 47.51 0.22 M0.27 54.56 C11.63 42.85, 21.83 30.96, 47.51 0.22 M0.01 60.96 C15.59 44.8, 33.23 26.52, 53.15 -0.17 M0.01 60.96 C19.59 37.52, 41.31 13.81, 53.15 -0.17 M1.72 65.09 C13.44 51.42, 26.32 40.34, 58.14 0.19 M1.72 65.09 C19.16 44.59, 36.35 24.64, 58.14 0.19 M7.36 64.7 C28.66 37.77, 52.54 14.28, 63.78 -0.21 M7.36 64.7 C19.31 51.95, 29.66 37.6, 63.78 -0.21 M12.35 65.06 C31.61 44.24, 51.58 20.93, 64.83 4.68 M12.35 65.06 C26.79 47.64, 42.25 31.93, 64.83 4.68 M17.99 64.66 C29.88 50.71, 40.74 38.34, 64.57 11.08 M17.99 64.66 C29.67 50.74, 43.89 36.52, 64.57 11.08 M22.98 65.02 C33.91 49.2, 47.76 36.3, 64.96 16.72 M22.98 65.02 C35.87 49.56, 48.41 36.14, 64.96 16.72 M27.96 65.38 C40.52 51.97, 54.69 36.95, 64.7 23.12 M27.96 65.38 C41.68 51.54, 53.72 36.24, 64.7 23.12 M33.61 64.99 C42.38 53.71, 49.94 44.5, 65.1 28.76 M33.61 64.99 C44.01 53.1, 54.27 41.51, 65.1 28.76 M38.59 65.35 C46.05 58.94, 50.26 49.99, 64.84 35.16 M38.59 65.35 C45.89 55.5, 54.57 46.49, 64.84 35.16 M44.24 64.95 C52.36 55.08, 60.01 46.16, 64.57 41.56 M44.24 64.95 C52.71 55.72, 59.05 46.61, 64.57 41.56 M49.22 65.31 C52.43 61.91, 56.49 57.24, 64.97 47.2 M49.22 65.31 C52.47 61.11, 56.68 58.17, 64.97 47.2 M54.87 64.92 C57.83 60.64, 63.13 55.93, 64.71 53.6 M54.87 64.92 C57.46 61.98, 59.63 58.37, 64.71 53.6 M59.85 65.28 C61.91 63.87, 63.9 60.81, 65.1 59.24 M59.85 65.28 C61.04 63.94, 61.73 62.35, 65.1 59.24" stroke="#e64980" stroke-width="0.5" fill="none"></path><path d="M0 0 C26.28 0.77, 49.38 1.85, 64.65 0 M0 0 C20.55 0.01, 41.93 -0.9, 64.65 0 M64.65 0 C65.08 16.48, 64.34 30.28, 64.65 64.65 M64.65 0 C64.1 19.14, 64.95 38.4, 64.65 64.65 M64.65 64.65 C49.36 62.25, 33.42 63.25, 0 64.65 M64.65 64.65 C38.74 63.95, 13.22 63.23, 0 64.65 M0 64.65 C0.29 44.1, 1.43 20.19, 0 0 M0 64.65 C-0.69 51.04, -0.13 37.05, 0 0" stroke="#000000" stroke-width="1" fill="none"></path></g><g stroke-linecap="round"><g transform="translate(401.78321500193897 230.52354275201975) rotate(0 7.584660526743164 0)"><path d="M0 0 C2.62 0.47, 6.44 -0.24, 15.17 0" stroke="#ffffff" stroke-width="2.5" fill="none" stroke-dasharray="1.5 8"></path></g></g><mask></mask><g stroke-linecap="round"><g transform="translate(400.31132064849726 255.302437270516) rotate(0 8.56891870063157 0)"><path d="M0 0 C5.46 -0.32, 10.99 -0.17, 17.14 0" stroke="#ffffff" stroke-width="2.5" fill="none" stroke-dasharray="1.5 8"></path></g></g><mask></mask><g stroke-linecap="round"><g transform="translate(383.5107710401853 226.35288218548072) rotate(0 8.477523156769621 16.805789676925713)"><path d="M0 0 C6.59 -2.78, 12.58 -4.82, 16.96 -7.4 M0 0 C4.54 -1.63, 8.6 -3.59, 16.96 -7.4 M16.96 -7.4 C15.99 8.16, 16.79 24.93, 16.87 41.01 M16.96 -7.4 C16.43 6.71, 16.25 20.65, 16.87 41.01 M16.87 41.01 C11.81 38.94, 8.25 37.25, 0.08 33.45 M16.87 41.01 C13.12 39.41, 10.02 38.05, 0.08 33.45 M0.08 33.45 C1.18 23, 0.33 13.93, 0 0 M0.08 33.45 C0.25 23.31, 0.26 14.19, 0 0" stroke="#ffffff" stroke-width="2" fill="none"></path></g></g><mask></mask><g stroke-linecap="round"><g transform="translate(417.97181471948534 218.7672707262737) rotate(0 8.48838764300524 24.139529940593718)"><path d="M0 0 C0.5 13.54, -0.36 25.26, 0.2 48.28 M0 0 C0.68 13.16, 0.47 26.38, 0.2 48.28 M0.2 48.28 C4.62 46.81, 9.12 43.78, 16.96 40.95 M0.2 48.28 C5.06 45.73, 10.58 44.11, 16.96 40.95 M16.96 40.95 C16.96 31.73, 16.26 22.8, 16.98 7.51 M16.96 40.95 C17.41 32, 16.96 21.96, 16.98 7.51 M16.98 7.51 C12.33 5.09, 7.36 2.81, 0 0 M16.98 7.51 C12.71 5.75, 8.31 3.26, 0 0" stroke="#ffffff" stroke-width="2" fill="none"></path></g></g><mask></mask><g stroke-linecap="round"><g transform="translate(404.6527829329998 248.9029102889702) rotate(0 4.550559742603639 -6.101967954136711)"><path d="M0 0 C2.14 -4.05, 4.99 -6.32, 9.1 -12.2 M0 0 C3.06 -4.03, 5.83 -8.41, 9.1 -12.2" stroke="#ffffff" stroke-width="2" fill="none"></path></g></g><mask></mask><g stroke-linecap="round"><g transform="translate(412.46129693780676 239.03415637052655) rotate(0 2.497387212051592 4.206928534313846)"><path d="M0 0 C1.72 1.77, 3.63 3.31, 5.01 4.37 M0 0 C1.44 1.18, 2.9 2.55, 5.01 4.37 M5.01 4.37 C3.28 5.63, 1.46 6.98, -0.01 8.41 M5.01 4.37 C3.74 5.29, 2.52 6.36, -0.01 8.41" stroke="#ffffff" stroke-width="2" fill="none"></path></g></g><mask></mask><g stroke-linecap="round"><g transform="translate(400.6554803366746 238.49077301777635) rotate(180 2.497387212051592 4.206928534313846)"><path d="M0 0 C1.21 1.17, 2.28 2.06, 5.01 4.37 M0 0 C1.45 1.3, 3.03 2.61, 5.01 4.37 M5.01 4.37 C3.81 5.09, 2.55 6.14, -0.01 8.41 M5.01 4.37 C2.99 5.95, 1.01 7.48, -0.01 8.41" stroke="#ffffff" stroke-width="2" fill="none"></path></g></g><mask></mask><g transform="translate(354.85333314973104 276.73749064834743) rotate(0 53.39996337890625 20)"><text x="53.39996337890625" y="14.016" font-family="Virgil, Segoe UI Emoji" font-size="16px" fill="#000000" text-anchor="middle" style="white-space: pre;" direction="ltr" dominant-baseline="alphabetic">Amazon</text><text x="53.39996337890625" y="34.016" font-family="Virgil, Segoe UI Emoji" font-size="16px" fill="#000000" text-anchor="middle" style="white-space: pre;" direction="ltr" dominant-baseline="alphabetic">API Gateway</text></g><g stroke-linecap="round" transform="translate(766.8724786843704 401.41370158376884) rotate(0 32.54042053222645 32.540420532226506)"><path d="M1.12 -0.54 L64.54 1.85 L66.02 63.94 L0.75 64.14" stroke="none" stroke-width="0" fill="#e64980"></path><path d="M0 0 C24.77 -0.84, 47.79 -0.88, 65.08 0 M0 0 C18.2 0.21, 37.06 -0.06, 65.08 0 M65.08 0 C66.69 12.66, 62.99 25.89, 65.08 65.08 M65.08 0 C65.54 18.35, 64.82 37.21, 65.08 65.08 M65.08 65.08 C38.74 64.6, 17.83 63.36, 0 65.08 M65.08 65.08 C44.13 64.62, 24.33 64.28, 0 65.08 M0 65.08 C-1.62 43.92, 1.04 22.84, 0 0 M0 65.08 C0.58 50.9, 1.29 36.04, 0 0" stroke="#00000000" stroke-width="1" fill="none"></path></g><g stroke-linecap="round" transform="translate(762.6607244620568 401.0163097581919) rotate(0 32.54042053222645 32.540420532226506)"><path d="M0 0 C0 0, 0 0, 0 0 M0 0 C0 0, 0 0, 0 0 M-0.26 6.4 C1.55 4.38, 2.87 1.24, 4.99 0.36 M-0.26 6.4 C1.55 4.44, 3.12 2.59, 4.99 0.36 M0.13 12.04 C2.73 10.16, 5.33 3.66, 10.63 -0.03 M0.13 12.04 C2.45 9.55, 5.36 5.74, 10.63 -0.03 M-0.13 18.44 C7.16 13.78, 9.63 4.32, 15.62 0.33 M-0.13 18.44 C3.04 15.15, 6.48 10.8, 15.62 0.33 M0.27 24.08 C6.89 18.71, 9.25 11.45, 21.26 -0.07 M0.27 24.08 C8.44 15.5, 14.13 6.91, 21.26 -0.07 M0 30.48 C8.13 22.91, 13.37 15.54, 26.25 0.29 M0 30.48 C7.71 21.24, 15.58 12.62, 26.25 0.29 M-0.26 36.88 C9.89 24.23, 24.77 7.85, 31.89 -0.1 M-0.26 36.88 C10.94 23.8, 21.49 13.28, 31.89 -0.1 M0.14 42.52 C7.65 32.99, 15.68 25.2, 36.88 0.26 M0.14 42.52 C13.05 27.02, 27.32 11.96, 36.88 0.26 M-0.12 48.92 C10.43 40.13, 18.96 29.6, 42.52 -0.14 M-0.12 48.92 C15.83 29.5, 34.21 11.15, 42.52 -0.14 M0.27 54.56 C15.69 33.51, 33.4 16.51, 47.51 0.22 M0.27 54.56 C10.55 42.45, 21.56 30.9, 47.51 0.22 M0.01 60.96 C20.56 37.06, 40.53 12.65, 53.15 -0.17 M0.01 60.96 C15.49 42.06, 30.72 24.48, 53.15 -0.17 M1.72 65.09 C22.79 42.33, 43.78 16.87, 58.14 0.19 M1.72 65.09 C13.04 51.55, 25.24 38.53, 58.14 0.19 M6.7 65.45 C24.52 44.62, 40.65 26.25, 63.78 -0.21 M6.7 65.45 C26.58 43.6, 45.16 21.22, 63.78 -0.21 M12.35 65.06 C26.84 44.86, 45.07 29.52, 65.49 3.93 M12.35 65.06 C31.96 41.19, 51.09 19.01, 65.49 3.93 M17.33 65.42 C35.49 43.37, 53.71 20.82, 65.88 9.57 M17.33 65.42 C34.11 46.54, 50.23 28.65, 65.88 9.57 M22.98 65.02 C35.64 49.57, 53.4 31.01, 65.62 15.97 M22.98 65.02 C35.98 49.61, 48.7 33.8, 65.62 15.97 M27.96 65.38 C41.75 51.26, 53.24 36.95, 66.02 21.61 M27.96 65.38 C37.48 54.2, 48.44 41.58, 66.02 21.61 M33.61 64.99 C42.82 50.96, 53.64 39.52, 65.75 28.01 M33.61 64.99 C45.27 52.11, 55.76 38.81, 65.75 28.01 M38.59 65.35 C47.02 57.75, 53.68 45.96, 65.49 34.41 M38.59 65.35 C43.51 58.55, 50.49 52.21, 65.49 34.41 M44.24 64.95 C50.22 56.6, 57.4 50.26, 65.89 40.05 M44.24 64.95 C52.43 54.88, 60.8 46.24, 65.89 40.05 M49.22 65.31 C53.64 59.54, 59.26 52.66, 65.63 46.45 M49.22 65.31 C53.38 61.15, 57.75 56.92, 65.63 46.45 M54.87 64.92 C57.35 61.9, 60.64 56.61, 66.02 52.09 M54.87 64.92 C57.77 62.18, 58.92 59.06, 66.02 52.09 M59.85 65.28 C60.19 64.58, 62.66 63.4, 65.76 58.49 M59.85 65.28 C61.34 62.93, 63.61 61.51, 65.76 58.49" stroke="#e64980" stroke-width="0.5" fill="none"></path><path d="M0 0 C19.53 -0.48, 42.58 1.22, 65.08 0 M0 0 C18.36 -0.21, 37.09 -0.65, 65.08 0 M65.08 0 C63.98 16.04, 65.43 32.86, 65.08 65.08 M65.08 0 C65.05 14.01, 66.13 28.51, 65.08 65.08 M65.08 65.08 C48.29 63.3, 27.9 64.43, 0 65.08 M65.08 65.08 C46.31 64.06, 27.38 65.35, 0 65.08 M0 65.08 C1.8 44.27, -1.03 20.53, 0 0 M0 65.08 C0.71 43.56, 0.56 20.53, 0 0" stroke="#000000" stroke-width="1" fill="none"></path></g><g stroke-linecap="round" transform="translate(770.8443759300849 430.1229842615973) rotate(0 4.058960227902503 4.058960227902446)"><path d="M4.45 -0.21 C5.28 -0.21, 6.31 0.23, 6.88 0.85 C7.46 1.48, 7.78 2.62, 7.92 3.53 C8.06 4.44, 8.23 5.57, 7.72 6.3 C7.2 7.03, 5.73 7.68, 4.83 7.92 C3.93 8.16, 3.09 8.1, 2.31 7.76 C1.52 7.43, 0.47 6.73, 0.1 5.93 C-0.28 5.12, -0.21 3.74, 0.06 2.92 C0.33 2.1, 0.97 1.49, 1.74 1 C2.51 0.51, 4.27 0.14, 4.68 -0.02 C5.1 -0.18, 4.22 0.01, 4.24 0.04 M3.93 -0.2 C4.8 -0.29, 6.14 -0.01, 6.86 0.64 C7.57 1.29, 8.08 2.85, 8.22 3.72 C8.35 4.59, 8.13 5.1, 7.67 5.86 C7.2 6.61, 6.24 7.98, 5.41 8.25 C4.59 8.52, 3.62 7.82, 2.72 7.48 C1.83 7.13, 0.49 6.85, 0.05 6.2 C-0.39 5.55, -0.22 4.41, 0.08 3.58 C0.39 2.74, 1.16 1.81, 1.88 1.19 C2.61 0.58, 4.08 -0.03, 4.44 -0.13 C4.8 -0.24, 4.03 0.5, 4.02 0.54" stroke="#ffffff" stroke-width="2" fill="none"></path></g><g stroke-linecap="round" transform="translate(811.9021429797044 430.0495491681317) rotate(0 4.058960227902503 4.058960227902446)"><path d="M3.57 -0.3 C4.35 -0.44, 5.34 -0.01, 6.12 0.52 C6.91 1.04, 8.05 1.99, 8.28 2.84 C8.51 3.69, 7.9 4.82, 7.49 5.63 C7.08 6.44, 6.59 7.3, 5.81 7.72 C5.04 8.14, 3.67 8.37, 2.82 8.14 C1.97 7.92, 1.18 7.05, 0.72 6.37 C0.25 5.69, -0.07 4.92, 0.03 4.06 C0.13 3.21, 0.77 1.9, 1.33 1.22 C1.9 0.53, 2.94 0.18, 3.4 -0.05 C3.87 -0.28, 4.05 -0.25, 4.11 -0.18 M4.12 -0.37 C5.01 -0.36, 6.09 0.62, 6.77 1.18 C7.45 1.74, 8.04 2.11, 8.19 2.98 C8.34 3.85, 8.09 5.64, 7.66 6.39 C7.24 7.14, 6.54 7.21, 5.64 7.49 C4.75 7.78, 3.12 8.27, 2.28 8.09 C1.43 7.92, 0.89 7.19, 0.57 6.46 C0.26 5.73, 0.22 4.65, 0.41 3.72 C0.59 2.78, 1.11 1.39, 1.69 0.85 C2.27 0.31, 3.44 0.64, 3.87 0.46 C4.29 0.29, 4.19 -0.15, 4.24 -0.2" stroke="#ffffff" stroke-width="2" fill="none"></path></g><g stroke-linecap="round"><g transform="translate(787.8255972761276 426.4425890071031) rotate(0 0.7141117199084874 7.450742628495675)"><path d="M-0.37 0.09 C-0.22 0.67, 0.85 2.25, 1.16 3.45 C1.47 4.66, 1.52 5.87, 1.5 7.32 C1.48 8.76, 1.41 10.95, 1.04 12.14 C0.66 13.32, -0.45 13.98, -0.74 14.42 M0.44 -0.35 C0.74 0.33, 1.86 2.77, 2.21 4.12 C2.56 5.47, 2.74 6.57, 2.54 7.76 C2.34 8.95, 1.4 10.15, 1.01 11.25 C0.62 12.35, 0.38 13.85, 0.19 14.36" stroke="#ffffff" stroke-width="2" fill="none"></path></g></g><mask></mask><g stroke-linecap="round"><g transform="translate(794.3870929948657 420.51542997401515) rotate(89.99999999999994 0.7141117199084874 7.450742628495675)"><path d="M-0.37 -0.06 C-0.14 0.46, 0.63 1.85, 0.99 3.22 C1.35 4.59, 1.75 6.84, 1.78 8.15 C1.81 9.47, 1.59 10.01, 1.18 11.12 C0.77 12.23, -0.41 14.27, -0.71 14.82 M0.44 -0.57 C0.86 0.01, 1.81 2.44, 1.95 3.76 C2.09 5.08, 1.41 6.1, 1.29 7.37 C1.17 8.64, 1.68 10.11, 1.23 11.37 C0.78 12.64, -1.23 14.29, -1.42 14.96" stroke="#ffffff" stroke-width="2" fill="none"></path></g></g><mask></mask><g stroke-linecap="round"><g transform="translate(800.3214968931138 427.0342750730385) rotate(180 0.7141117199084874 7.450742628495675)"><path d="M-0.54 -0.3 C-0.27 0.39, 0.86 2.82, 1.27 4.06 C1.68 5.3, 1.93 5.89, 1.92 7.14 C1.91 8.38, 1.63 10.3, 1.21 11.51 C0.79 12.73, -0.31 13.89, -0.58 14.43 M0.18 0.74 C0.67 1.29, 2.14 2.24, 2.36 3.37 C2.59 4.49, 1.69 6.06, 1.51 7.49 C1.33 8.93, 1.73 10.83, 1.28 11.98 C0.82 13.12, -0.8 13.99, -1.23 14.36" stroke="#ffffff" stroke-width="2" fill="none"></path></g></g><mask></mask><g stroke-linecap="round"><g transform="translate(793.7690954671452 432.9822889922488) rotate(270 0.7141117199084874 7.450742628495675)"><path d="M-0.27 0.54 C0.06 1.1, 1.04 1.87, 1.41 3.04 C1.78 4.2, 1.96 6.19, 1.95 7.53 C1.94 8.88, 1.73 9.92, 1.34 11.12 C0.95 12.33, -0.03 14.14, -0.38 14.78 M0.6 0.34 C0.89 0.98, 0.76 2.2, 0.92 3.49 C1.08 4.78, 1.47 6.78, 1.56 8.09 C1.65 9.41, 1.88 10.25, 1.47 11.38 C1.05 12.52, -0.65 14.37, -0.93 14.89" stroke="#ffffff" stroke-width="2" fill="none"></path></g></g><mask></mask><g stroke-linecap="round"><g transform="translate(780.9890516090504 434.1967090513651) rotate(0 2.921236942186397 0.051064377021191376)"><path d="M0 0 C1.29 -0.04, 2.9 -0.01, 5.82 -0.05 M0 0 C1.22 0, 2.57 0.04, 5.82 -0.05 M5.82 -0.05 C5.2 -0.87, 4.37 -1.51, 3.25 -2.53 M5.82 -0.05 C5.09 -0.83, 4.34 -1.47, 3.25 -2.53 M3.25 -2.53 C4.18 -1.68, 4.86 -1.01, 5.84 -0.05 M3.25 -2.53 C4.18 -1.66, 5.05 -0.86, 5.84 -0.05 M5.84 -0.05 C5.01 0.74, 4.26 1.37, 3.04 2.63 M5.84 -0.05 C5.16 0.52, 4.58 1.14, 3.04 2.63" stroke="#ffffff" stroke-width="2" fill="none"></path></g></g><mask></mask><g stroke-linecap="round"><g transform="translate(803.5829002359883 434.3195795130022) rotate(0 2.921236942186397 0.051064377021191376)"><path d="M0 0 C1.59 0, 3.06 0.05, 5.82 -0.05 M0 0 C1.69 0.05, 3.22 -0.12, 5.82 -0.05 M5.82 -0.05 C5.11 -0.79, 4.36 -1.5, 3.25 -2.53 M5.82 -0.05 C5.17 -0.67, 4.51 -1.38, 3.25 -2.53 M3.25 -2.53 C3.98 -1.86, 4.93 -0.98, 5.84 -0.05 M3.25 -2.53 C4.24 -1.65, 5.13 -0.67, 5.84 -0.05 M5.84 -0.05 C4.8 0.84, 3.79 1.85, 3.04 2.63 M5.84 -0.05 C5.21 0.53, 4.57 1.2, 3.04 2.63" stroke="#ffffff" stroke-width="2" fill="none"></path></g></g><mask></mask><g stroke-linecap="round"><g transform="translate(774.8677699132804 430.16680364411667) rotate(0 20.67481640637584 -8.390257953829575)"><path d="M0.08 -1.03 C0.62 -2.32, 1.76 -5.93, 3.06 -7.93 C4.37 -9.93, 5.75 -11.77, 7.91 -13.01 C10.07 -14.26, 13.72 -14.6, 16.03 -15.43 C18.35 -16.26, 19.55 -18.25, 21.8 -17.99 C24.04 -17.73, 27.39 -15.05, 29.51 -13.87 C31.63 -12.68, 32.86 -12.3, 34.49 -10.89 C36.11 -9.48, 38.21 -7.15, 39.26 -5.39 C40.31 -3.64, 40.4 -1.11, 40.8 -0.33 M-1.34 1.04 C-0.9 -0.05, 1 -4.42, 2.38 -6.54 C3.76 -8.65, 4.56 -9.81, 6.95 -11.65 C9.35 -13.49, 14.55 -16.5, 16.77 -17.58 C18.98 -18.66, 17.91 -18.7, 20.25 -18.15 C22.59 -17.6, 28.4 -15.29, 30.8 -14.29 C33.19 -13.29, 33.4 -13.56, 34.61 -12.14 C35.83 -10.72, 36.75 -8.09, 38.07 -5.79 C39.38 -3.48, 41.75 1, 42.5 1.69" stroke="#ffffff" stroke-width="2" fill="none"></path></g></g><mask></mask><g stroke-linecap="round"><g transform="translate(774.6141125402687 454.8543873162675) rotate(180 20.67481640637584 -8.390257953829575)"><path d="M0.5 -0.27 C0.86 -1.36, 0.75 -5.57, 2.2 -7.58 C3.65 -9.59, 7.08 -10.72, 9.21 -12.33 C11.33 -13.94, 12.87 -16.67, 14.95 -17.24 C17.03 -17.81, 19.4 -16.17, 21.7 -15.78 C24 -15.38, 26.52 -15.62, 28.76 -14.86 C31.01 -14.09, 33.45 -12.67, 35.16 -11.16 C36.87 -9.65, 37.94 -7.53, 39.02 -5.79 C40.1 -4.05, 41.18 -1.83, 41.63 -0.74 M-0.69 -1.46 C-0.53 -2.25, -0.54 -3.86, 1.06 -5.99 C2.66 -8.13, 6.59 -12.49, 8.93 -14.27 C11.28 -16.05, 12.65 -15.99, 15.12 -16.69 C17.59 -17.38, 21.34 -18.58, 23.76 -18.43 C26.19 -18.29, 27.68 -16.78, 29.66 -15.8 C31.64 -14.82, 33.69 -14.13, 35.64 -12.56 C37.59 -10.99, 40.62 -8.66, 41.37 -6.39 C42.11 -4.12, 39.89 -0.11, 40.1 1.07" stroke="#ffffff" stroke-width="2" fill="none"></path></g></g><mask></mask><g transform="translate(692.9131887564904 470.07049782793746) rotate(0 102.28795623779297 10)"><text x="102.28795623779297" y="14.016" font-family="Virgil, Segoe UI Emoji" font-size="16px" fill="#000000" text-anchor="middle" style="white-space: pre;" direction="ltr" dominant-baseline="alphabetic">Amazon SQS Dead Letter</text></g><g stroke-linecap="round" transform="translate(1201.8872436715258 212.37583985696125) rotate(0 32.54042053222656 32.540420532226506)"><path d="M-1.8 0.24 L65.35 -0.87 L66.34 64.91 L-1.42 63.47" stroke="none" stroke-width="0" fill="#4c6ef5"></path><path d="M0 0 C18.84 -0.75, 33.38 -0.91, 65.08 0 M0 0 C25.59 -0.18, 51.25 -0.51, 65.08 0 M65.08 0 C65.66 21.6, 63.32 42.29, 65.08 65.08 M65.08 0 C64.39 24.45, 65.28 48.73, 65.08 65.08 M65.08 65.08 C40.4 64.91, 18.64 66.39, 0 65.08 M65.08 65.08 C48.87 64.05, 33.64 64.04, 0 65.08 M0 65.08 C-0.41 50.43, 1.56 36.92, 0 0 M0 65.08 C-0.72 40.59, 0.43 18.43, 0 0" stroke="#00000000" stroke-width="1" fill="none"></path></g><g stroke-linecap="round" transform="translate(1197.8918037813055 215.21947003118208) rotate(0 32.54042053222645 32.540420532226506)"><path d="M0 0 C0 0, 0 0, 0 0 M0 0 C0 0, 0 0, 0 0 M-0.26 6.4 C2.04 5.1, 4.03 3.09, 4.99 0.36 M-0.26 6.4 C0.82 4.75, 2.05 3.88, 4.99 0.36 M0.13 12.04 C1.06 8.92, 5.86 6.98, 10.63 -0.03 M0.13 12.04 C2.33 9.24, 6.22 5.66, 10.63 -0.03 M-0.13 18.44 C4.59 15.49, 7.73 11.62, 15.62 0.33 M-0.13 18.44 C3.5 12.88, 8.52 7.64, 15.62 0.33 M0.27 24.08 C8.12 17.88, 11.38 10.76, 21.26 -0.07 M0.27 24.08 C7.15 16.62, 14.69 7.43, 21.26 -0.07 M0 30.48 C11.35 19.98, 19.14 8.07, 26.25 0.29 M0 30.48 C7.98 21.45, 16.3 10.94, 26.25 0.29 M-0.26 36.88 C9.88 21.92, 24.71 10.96, 31.89 -0.1 M-0.26 36.88 C11.7 23.02, 22.92 8.92, 31.89 -0.1 M0.14 42.52 C15.12 27.07, 25.87 9.55, 36.88 0.26 M0.14 42.52 C8.3 31.76, 17.89 21.02, 36.88 0.26 M-0.12 48.92 C11.25 35.46, 22.49 22.07, 42.52 -0.14 M-0.12 48.92 C12.74 35.71, 23.57 21.63, 42.52 -0.14 M0.27 54.56 C9.82 39.52, 23.51 27.76, 47.51 0.22 M0.27 54.56 C17.16 37.54, 32.38 18.96, 47.51 0.22 M0.01 60.96 C18.71 37.12, 38.8 14.98, 53.15 -0.17 M0.01 60.96 C11.66 46.39, 24.96 32.35, 53.15 -0.17 M1.72 65.09 C16.11 48.77, 29.91 29.18, 58.14 0.19 M1.72 65.09 C19.96 44.11, 38.53 21.02, 58.14 0.19 M6.7 65.45 C23.02 45.84, 37.73 28.39, 63.78 -0.21 M6.7 65.45 C19.1 52.45, 31.16 38.43, 63.78 -0.21 M12.35 65.06 C32.49 40.95, 49.35 20.77, 65.49 3.93 M12.35 65.06 C31.47 43.92, 50.57 21.05, 65.49 3.93 M17.33 65.42 C31.22 49.72, 44.82 35.94, 65.88 9.57 M17.33 65.42 C29.72 51.31, 42.77 35.83, 65.88 9.57 M22.98 65.02 C39.71 48.08, 54.05 26.6, 65.62 15.97 M22.98 65.02 C36.2 50.28, 47.71 37.46, 65.62 15.97 M27.96 65.38 C40.25 52.51, 50.01 42.46, 66.02 21.61 M27.96 65.38 C37.07 54.86, 46.39 43.39, 66.02 21.61 M33.61 64.99 C42.77 51.24, 54.07 39.57, 65.75 28.01 M33.61 64.99 C43.31 53.59, 51.33 43.62, 65.75 28.01 M38.59 65.35 C46.32 55.29, 54.85 45.78, 65.49 34.41 M38.59 65.35 C47.67 55.97, 55.97 46.53, 65.49 34.41 M44.24 64.95 C50.79 57.31, 60.18 46.31, 65.89 40.05 M44.24 64.95 C50.59 57.79, 57.35 50.96, 65.89 40.05 M49.22 65.31 C53.92 59.24, 54.9 58.33, 65.63 46.45 M49.22 65.31 C55.31 57.88, 59.69 51.62, 65.63 46.45 M54.87 64.92 C56.74 60.81, 61.54 55.86, 66.02 52.09 M54.87 64.92 C58.12 59.48, 62.45 56.12, 66.02 52.09 M59.85 65.28 C61.66 63.76, 63.79 59.71, 65.76 58.49 M59.85 65.28 C62.06 62.24, 64.49 59.86, 65.76 58.49" stroke="#4c6ef5" stroke-width="0.5" fill="none"></path><path d="M0 0 C22.86 -0.32, 51.14 -1.57, 65.08 0 M0 0 C20.03 -0.36, 41.21 -0.7, 65.08 0 M65.08 0 C64.15 21.66, 66.82 43.41, 65.08 65.08 M65.08 0 C64.51 15.47, 65.21 30.27, 65.08 65.08 M65.08 65.08 C43.75 65.85, 17.58 65.65, 0 65.08 M65.08 65.08 C48.84 63.88, 31.43 64.01, 0 65.08 M0 65.08 C1.43 45.56, 1.48 23.38, 0 0 M0 65.08 C0.89 44.45, -0.41 23.26, 0 0" stroke="#000000" stroke-width="1" fill="none"></path></g><g stroke-linecap="round"><g transform="translate(1234.0226044770297 230.49970051578185) rotate(0 6.8426058235760365 14.751091176351991)"><path d="M0 0 C3.8 -0.48, 6.59 -0.18, 11.29 -0.08 M0 0 C3.36 -0.21, 6.67 0.13, 11.29 -0.08 M11.29 -0.08 C10.88 3.79, 9.28 6.82, 8.92 11.18 M11.29 -0.08 C10.69 3.94, 9.84 7.51, 8.92 11.18 M8.92 11.18 C10.91 11.3, 13.16 10.98, 17.04 11.13 M8.92 11.18 C10.62 11.08, 12.65 11.11, 17.04 11.13 M17.04 11.13 C12.81 16.75, 7.54 21.65, 0.95 29.58 M17.04 11.13 C13.4 14.92, 10.69 18.34, 0.95 29.58 M0.95 29.58 C1.56 23.21, 4.37 16.87, 4.5 12.79 M0.95 29.58 C1.44 25.96, 2.67 22.64, 4.5 12.79 M4.5 12.79 C3.1 13.21, 1.34 12.63, -3.35 12.91 M4.5 12.79 C2.51 12.68, 0.92 12.66, -3.35 12.91 M-3.35 12.91 C-2.31 8.65, -0.78 3.02, 0 0 M-3.35 12.91 C-2.5 10.35, -1.95 7.01, 0 0" stroke="#ffffff" stroke-width="2" fill="none"></path></g></g><mask></mask><g stroke-linecap="round"><g transform="translate(1240.2386804823154 227.46898931308993) rotate(0 -15.0618257389159 4.855322700205704)"><path d="M-0.45 0.08 C-1.24 -0.23, -3.01 -0.97, -4.85 -1.36 C-6.69 -1.76, -9.1 -2.21, -11.49 -2.29 C-13.88 -2.38, -16.82 -2.35, -19.2 -1.86 C-21.58 -1.36, -24.26 0.11, -25.76 0.68 C-27.27 1.25, -27.6 1.02, -28.25 1.54 C-28.9 2.06, -29.39 3.2, -29.68 3.8 C-29.96 4.41, -30.01 4.53, -29.96 5.18 C-29.91 5.83, -30.04 6.94, -29.38 7.72 C-28.73 8.5, -27.32 9.3, -26.04 9.87 C-24.75 10.44, -23.07 10.9, -21.65 11.15 C-20.24 11.39, -18.94 11.15, -17.55 11.34 C-16.16 11.53, -14.7 12.3, -13.29 12.28 C-11.89 12.26, -9.79 11.39, -9.1 11.23 M0.32 -0.35 C-0.55 -0.35, -3.31 -0.44, -5.36 -0.68 C-7.4 -0.93, -9.69 -1.66, -11.97 -1.81 C-14.25 -1.96, -16.62 -2.04, -19.02 -1.57 C-21.42 -1.1, -24.66 0.32, -26.35 1.01 C-28.05 1.69, -28.69 2.15, -29.19 2.55 C-29.69 2.95, -29.16 3.01, -29.35 3.39 C-29.54 3.76, -30.45 4.18, -30.35 4.82 C-30.24 5.46, -29.5 6.37, -28.73 7.21 C-27.95 8.04, -26.92 9.36, -25.69 9.85 C-24.45 10.33, -22.58 9.9, -21.31 10.11 C-20.03 10.31, -19.38 10.73, -18.03 11.07 C-16.69 11.41, -14.72 12.19, -13.26 12.17 C-11.81 12.15, -10.02 11.19, -9.29 10.98" stroke="#ffffff" stroke-width="2" fill="none"></path></g></g><mask></mask><g stroke-linecap="round"><g transform="translate(1210.28585673194 232.08995698783798) rotate(0 -0.0759000701664263 15.725015039237292)"><path d="M-0.14 -0.04 C-0.14 5.15, -0.42 26.04, -0.4 31.22 M0.78 -0.54 C0.74 4.71, -0.78 26.48, -0.97 31.81" stroke="#ffffff" stroke-width="2" fill="none"></path></g></g><mask></mask><g stroke-linecap="round"><g transform="translate(1209.9621893991175 263.1947380024554) rotate(0 18.165458324679093 3.4606259299867475)"><path d="M-0.25 -0.23 C-0.14 -0.03, 0.16 0.52, 0.55 1.12 C0.94 1.72, 1.39 2.85, 2.1 3.39 C2.81 3.93, 3.73 3.87, 4.81 4.36 C5.89 4.85, 7.27 6.02, 8.6 6.35 C9.92 6.67, 11.34 6.18, 12.76 6.32 C14.17 6.45, 15.39 7.01, 17.11 7.14 C18.83 7.27, 21.24 7.24, 23.08 7.1 C24.92 6.95, 26.61 6.75, 28.17 6.28 C29.74 5.81, 31.35 4.79, 32.46 4.26 C33.58 3.74, 34.2 3.84, 34.89 3.11 C35.58 2.38, 36.32 0.41, 36.59 -0.11 M0.62 -0.82 C0.69 -0.56, -0.02 1.06, 0.19 1.61 C0.39 2.16, 1.03 1.97, 1.83 2.48 C2.63 2.99, 3.98 3.97, 5 4.68 C6.03 5.39, 6.83 6.28, 7.96 6.72 C9.1 7.16, 10.28 7.32, 11.82 7.3 C13.35 7.29, 15.35 6.67, 17.15 6.64 C18.95 6.61, 20.87 7.26, 22.62 7.13 C24.36 6.99, 25.89 6.35, 27.61 5.82 C29.34 5.3, 31.75 4.59, 32.97 3.98 C34.2 3.37, 34.44 2.9, 34.96 2.15 C35.48 1.41, 35.78 -0.01, 36.08 -0.47" stroke="#ffffff" stroke-width="2" fill="none"></path></g></g><mask></mask><g stroke-linecap="round"><g transform="translate(1246.3285690785583 263.4959147969101) rotate(0 -0.04008524370055966 -7.298939482208169)"><path d="M0.13 -0.41 C0.18 -2.76, 0.09 -11.88, 0.08 -14.3 M-0.47 0.57 C-0.45 -1.92, -0.32 -12.6, -0.27 -15.12" stroke="#ffffff" stroke-width="2" fill="none"></path></g></g><mask></mask><g stroke-linecap="round"><g transform="translate(1210.09179216474 240.49411856168882) rotate(0 10.664985931171941 3.2175688300493164)"><path d="M0.16 0.29 C0.26 0.58, 0.33 0.74, 0.73 1.32 C1.14 1.9, 1.74 3.22, 2.59 3.79 C3.45 4.36, 4.89 4.37, 5.86 4.74 C6.84 5.11, 7.28 5.65, 8.47 5.99 C9.66 6.33, 11.41 6.67, 13 6.79 C14.58 6.91, 16.54 6.82, 17.98 6.72 C19.42 6.62, 21.11 6.17, 21.64 6.19 M-0.42 -0.03 C-0.39 0.36, -0.07 1.35, 0.38 1.84 C0.83 2.33, 1.33 2.38, 2.28 2.92 C3.23 3.45, 4.9 4.48, 6.06 5.04 C7.22 5.6, 7.95 6.04, 9.22 6.28 C10.48 6.53, 12.38 6.5, 13.64 6.5 C14.91 6.5, 15.53 6.37, 16.81 6.28 C18.09 6.19, 20.46 5.92, 21.33 5.96" stroke="#ffffff" stroke-width="2" fill="none"></path></g></g><mask></mask><g stroke-linecap="round"><g transform="translate(1209.9775120861295 243.85658841406695) rotate(0 12.014454878583138 3.413641568282088)"><path d="M0.16 -0.35 C0.22 -0.05, 0.14 1.55, 0.53 2.12 C0.92 2.7, 1.67 2.53, 2.48 3.09 C3.3 3.64, 4.11 4.85, 5.43 5.44 C6.75 6.04, 8.65 6.37, 10.41 6.66 C12.17 6.94, 14.24 7.19, 15.98 7.17 C17.71 7.14, 19.5 6.59, 20.82 6.51 C22.13 6.42, 23.3 6.77, 23.88 6.66 M-0.43 0.66 C-0.44 0.79, -0.31 0.88, 0.13 1.35 C0.57 1.82, 1.36 2.98, 2.22 3.48 C3.08 3.99, 4.04 3.8, 5.29 4.39 C6.54 4.98, 8.1 6.6, 9.74 7.02 C11.39 7.43, 13.24 6.79, 15.16 6.87 C17.08 6.95, 19.91 7.5, 21.27 7.48 C22.63 7.47, 22.94 6.89, 23.34 6.76" stroke="#ffffff" stroke-width="2" fill="none"></path></g></g><mask></mask><g stroke-linecap="round"><g transform="translate(1210.02904048448 252.11366978242273) rotate(0 11.923246779587657 3.251018803034981)"><path d="M0.07 0.38 C0.16 0.66, 0.43 0.77, 0.7 1.29 C0.96 1.82, 0.77 2.82, 1.64 3.54 C2.5 4.26, 4.3 5.11, 5.89 5.6 C7.48 6.09, 9.58 6.36, 11.19 6.49 C12.79 6.61, 13.99 6.28, 15.53 6.35 C17.08 6.42, 19.02 7.04, 20.45 6.92 C21.88 6.79, 23.5 5.82, 24.11 5.61 M-0.56 0.1 C-0.54 0.47, -0.2 1.37, 0.35 1.79 C0.89 2.2, 1.76 2.12, 2.7 2.59 C3.65 3.06, 4.67 3.91, 6 4.62 C7.34 5.33, 9.27 6.64, 10.72 6.84 C12.16 7.04, 13.01 5.85, 14.67 5.8 C16.33 5.76, 19.15 6.65, 20.66 6.57 C22.18 6.48, 23.32 5.3, 23.77 5.3" stroke="#ffffff" stroke-width="2" fill="none"></path></g></g><mask></mask><g stroke-linecap="round"><g transform="translate(1209.8027621177055 256.11346764769934) rotate(0 18.330814841005008 2.711729602283242)"><path d="M0.16 -0.4 C0.25 -0.13, 0.01 1.24, 0.61 1.96 C1.22 2.67, 2.65 3.39, 3.77 3.89 C4.89 4.39, 5.73 4.62, 7.35 4.96 C8.98 5.3, 11.58 5.62, 13.53 5.9 C15.49 6.19, 17.21 6.74, 19.09 6.65 C20.97 6.56, 23.11 5.7, 24.83 5.34 C26.55 4.98, 27.97 4.94, 29.39 4.5 C30.8 4.05, 32.24 3.3, 33.32 2.68 C34.4 2.07, 35.4 1.43, 35.89 0.81 C36.38 0.19, 36.11 -0.76, 36.26 -1.05 M-0.42 0.59 C-0.17 0.65, 0.96 0.7, 1.6 1.1 C2.24 1.51, 2.41 2.52, 3.42 3 C4.43 3.48, 6.07 3.47, 7.67 3.97 C9.27 4.47, 11.03 5.59, 13.02 6 C15.02 6.42, 17.62 6.4, 19.66 6.44 C21.7 6.47, 23.69 6.6, 25.26 6.23 C26.82 5.86, 27.55 4.66, 29.03 4.21 C30.51 3.75, 32.9 4.15, 34.12 3.51 C35.33 2.88, 35.95 1.11, 36.3 0.4 C36.65 -0.32, 36.21 -0.5, 36.19 -0.77" stroke="#ffffff" stroke-width="2" fill="none"></path></g></g><mask></mask><g stroke-linecap="round"><g transform="translate(1240.6709991515775 256.3113140260421) rotate(0 2.7091546481840396 -1.7684364552388558)"><path d="M-0.31 0.14 C0.32 -0.14, 2.93 -1.35, 3.93 -1.93 C4.93 -2.51, 5.39 -3.03, 5.67 -3.32 M0.17 -0.09 C0.75 -0.45, 2.75 -1.8, 3.65 -2.44 C4.55 -3.07, 5.22 -3.74, 5.57 -3.89" stroke="#ffffff" stroke-width="2" fill="none"></path></g></g><mask></mask><g stroke-linecap="round"><g transform="translate(1213.3109091061388 238.72505180459262) rotate(0 2.0975957205215536 2.2806300052176027)"><path d="M0 0 C1.02 0.47, 1.94 0.81, 4.34 1.72 M0 0 C1.22 0.41, 2.4 0.89, 4.34 1.72 M4.34 1.72 C4.24 2.39, 4.22 3.22, 4.23 4.56 M4.34 1.72 C4.34 2.48, 4.28 3.21, 4.23 4.56 M4.23 4.56 C3.3 4.04, 2.28 3.82, -0.15 2.86 M4.23 4.56 C3.04 4.06, 1.95 3.76, -0.15 2.86 M-0.15 2.86 C-0.06 2.11, -0.09 1.54, 0 0 M-0.15 2.86 C-0.06 1.95, 0 1, 0 0" stroke="#ffffff" stroke-width="2" fill="none"></path></g></g><mask></mask><g stroke-linecap="round"><g transform="translate(1213.3670108575013 250.53711138212617) rotate(0 2.0975957205215536 2.2806300052176027)"><path d="M0 0 C1.41 0.59, 2.57 0.98, 4.34 1.72 M0 0 C1.74 0.64, 3.38 1.3, 4.34 1.72 M4.34 1.72 C4.24 2.65, 4.22 3.55, 4.23 4.56 M4.34 1.72 C4.31 2.75, 4.23 3.71, 4.23 4.56 M4.23 4.56 C2.75 3.99, 1.18 3.49, -0.15 2.86 M4.23 4.56 C2.93 4.13, 1.63 3.49, -0.15 2.86 M-0.15 2.86 C-0.13 2.21, -0.05 1.42, 0 0 M-0.15 2.86 C-0.06 1.9, -0.08 0.82, 0 0" stroke="#ffffff" stroke-width="2" fill="none"></path></g></g><mask></mask><g stroke-linecap="round"><g transform="translate(1213.5214445846639 261.8997828366103) rotate(0 2.0975957205215536 2.2806300052176027)"><path d="M0 0 C1.57 0.59, 3.37 1.34, 4.34 1.72 M0 0 C1.03 0.37, 2.13 0.78, 4.34 1.72 M4.34 1.72 C4.27 2.36, 4.34 3.06, 4.23 4.56 M4.34 1.72 C4.27 2.7, 4.28 3.79, 4.23 4.56 M4.23 4.56 C3.24 4.3, 2.37 3.74, -0.15 2.86 M4.23 4.56 C3.22 4.13, 2.26 3.87, -0.15 2.86 M-0.15 2.86 C-0.08 2.14, -0.03 1.62, 0 0 M-0.15 2.86 C-0.13 1.7, -0.07 0.58, 0 0" stroke="#ffffff" stroke-width="2" fill="none"></path></g></g><mask></mask><g transform="translate(1191.062336007868 284.57629681340865) rotate(0 40.61598205566406 20)"><text x="40.61598205566406" y="14.016" font-family="Virgil, Segoe UI Emoji" font-size="16px" fill="#000000" text-anchor="middle" style="white-space: pre;" direction="ltr" dominant-baseline="alphabetic">Amazon</text><text x="40.61598205566406" y="34.016" font-family="Virgil, Segoe UI Emoji" font-size="16px" fill="#000000" text-anchor="middle" style="white-space: pre;" direction="ltr" dominant-baseline="alphabetic">DynamoDB</text></g><g stroke-linecap="round" transform="translate(273.90500354136475 112.45869583383654) rotate(0 136.82475921745254 18.88305500512348)"><path d="M9.44 0 C60.15 -0.19, 111.84 0.43, 264.21 0 C272.85 -2.86, 276.03 6.02, 273.65 9.44 C274.26 12.53, 274.68 18.49, 273.65 28.32 C275.78 33.38, 273.37 36.21, 264.21 37.77 C185.7 35.84, 110.3 40.36, 9.44 37.77 C4.49 40.43, 0.21 37.99, 0 28.32 C-0.06 25.26, 3.2 19.34, 0 9.44 C2.96 4.23, 0.72 -1.99, 9.44 0" stroke="none" stroke-width="0" fill="#ffc9c9"></path><path d="M9.44 0 C78.09 -0.36, 147.81 -1.59, 264.21 0 M9.44 0 C66.77 1.02, 125.45 1.19, 264.21 0 M264.21 0 C270.58 1.17, 274.94 4.37, 273.65 9.44 M264.21 0 C270.41 0.51, 271.94 0.86, 273.65 9.44 M273.65 9.44 C273.94 16.12, 272.9 23.48, 273.65 28.32 M273.65 9.44 C273.19 15.86, 272.92 19.61, 273.65 28.32 M273.65 28.32 C272.43 35.62, 269.04 37.43, 264.21 37.77 M273.65 28.32 C274.57 35.39, 268.77 38.96, 264.21 37.77 M264.21 37.77 C173.34 38.71, 78.46 38.61, 9.44 37.77 M264.21 37.77 C202.07 35.82, 139.16 35.93, 9.44 37.77 M9.44 37.77 C1.59 37.02, 1.63 34.69, 0 28.32 M9.44 37.77 C2.22 35.85, 1.11 32.82, 0 28.32 M0 28.32 C-1.93 21.3, -0.78 16.55, 0 9.44 M0 28.32 C-0.29 22.56, -0.22 15, 0 9.44 M0 9.44 C-0.91 2.85, 2 0.19, 9.44 0 M0 9.44 C-0.96 5.09, 4.59 1.67, 9.44 0" stroke="#1e1e1e" stroke-width="2" fill="none"></path></g><g transform="translate(278.90500354136475 121.74175083896006) rotate(0 107.8125 9.599999999999994)"><text x="0" y="15.45" font-family="Cascadia, Segoe UI Emoji" font-size="16px" fill="#1e1e1e" text-anchor="start" style="white-space: pre;" direction="ltr" dominant-baseline="alphabetic">GET   create-upload-url</text></g><g stroke-linecap="round"><g transform="translate(397.9561173728637 148.3674561714485) rotate(0 1.2726859088049878 30.529995528772588)"><path d="M0.45 -0.57 C0.7 9.58, 1.69 50.06, 2.09 60.19" stroke="#1e1e1e" stroke-width="2.5" fill="none" stroke-dasharray="8 10"></path></g><g transform="translate(397.9561173728637 148.3674561714485) rotate(0 1.2726859088049878 30.529995528772588)"><path d="M-7.18 36.97 C-5.04 44.23, -2.33 53.48, 2.09 60.19" stroke="#1e1e1e" stroke-width="2.5" fill="none"></path></g><g transform="translate(397.9561173728637 148.3674561714485) rotate(0 1.2726859088049878 30.529995528772588)"><path d="M9.92 36.45 C6.12 43.95, 2.89 53.39, 2.09 60.19" stroke="#1e1e1e" stroke-width="2.5" fill="none"></path></g></g><mask></mask><g stroke-linecap="round"><g transform="translate(787.4314756814867 104.47641130956703) rotate(0 -0.033594160931443184 53.83002514450996)"><path d="M-0.46 -0.87 C-0.5 17.02, 0.27 88.81, 0.19 106.78" stroke="#1e1e1e" stroke-width="2.5" fill="none" stroke-dasharray="8 10"></path></g><g transform="translate(787.4314756814867 104.47641130956703) rotate(0 -0.033594160931443184 53.83002514450996)"><path d="M-8.45 83.32 C-7.1 91.7, -4.19 97.71, 0.19 106.78" stroke="#1e1e1e" stroke-width="2.5" fill="none"></path></g><g transform="translate(787.4314756814867 104.47641130956703) rotate(0 -0.033594160931443184 53.83002514450996)"><path d="M8.65 83.25 C4.23 91.59, 1.36 97.63, 0.19 106.78" stroke="#1e1e1e" stroke-width="2.5" fill="none"></path></g></g><mask></mask><g stroke-linecap="round"><g transform="translate(454.0679217869697 242.56779003479124) rotate(0 63.72411153799794 -0.867729011635987)"><path d="M-0.88 -0.72 C20.35 -0.94, 106.29 -2.16, 127.68 -2.21" stroke="#1e1e1e" stroke-width="2.5" fill="none" stroke-dasharray="8 10"></path></g><g transform="translate(454.0679217869697 242.56779003479124) rotate(0 63.72411153799794 -0.867729011635987)"><path d="M22.5 -9.56 C13.72 -6.5, 6.6 -3.97, -0.88 -0.72" stroke="#1e1e1e" stroke-width="2.5" fill="none"></path></g><g transform="translate(454.0679217869697 242.56779003479124) rotate(0 63.72411153799794 -0.867729011635987)"><path d="M22.71 7.54 C13.99 5.1, 6.8 2.13, -0.88 -0.72" stroke="#1e1e1e" stroke-width="2.5" fill="none"></path></g><g transform="translate(454.0679217869697 242.56779003479124) rotate(0 63.72411153799794 -0.867729011635987)"><path d="M104.27 6.55 C110.66 4.3, 118.59 1.17, 127.68 -2.21" stroke="#1e1e1e" stroke-width="2.5" fill="none"></path></g><g transform="translate(454.0679217869697 242.56779003479124) rotate(0 63.72411153799794 -0.867729011635987)"><path d="M104.12 -10.55 C110.43 -7.3, 118.41 -4.94, 127.68 -2.21" stroke="#1e1e1e" stroke-width="2.5" fill="none"></path></g></g><mask></mask><g stroke-linecap="round"><g transform="translate(832.9672550045304 254.2363875116493) rotate(0 74.60354518417648 0)"><path d="M0.41 -0.5 C25.26 -0.62, 124.94 -0.61, 149.77 -0.47" stroke="#1e1e1e" stroke-width="2.5" fill="none" stroke-dasharray="8 10"></path></g><g transform="translate(832.9672550045304 254.2363875116493) rotate(0 74.60354518417648 0)"><path d="M23.9 -9.06 C14.79 -5.03, 6.54 -2.64, 0.41 -0.5" stroke="#1e1e1e" stroke-width="2.5" fill="none"></path></g><g transform="translate(832.9672550045304 254.2363875116493) rotate(0 74.60354518417648 0)"><path d="M23.9 8.04 C14.76 6.04, 6.51 2.39, 0.41 -0.5" stroke="#1e1e1e" stroke-width="2.5" fill="none"></path></g></g><mask></mask><g stroke-linecap="round"><g transform="translate(1064.5168475263729 252.3790378390142) rotate(0 61.911655754503386 -1.8573496726351095)"><path d="M0.96 0.6 C21.61 0.09, 104.43 -2.38, 124.79 -2.95" stroke="#1e1e1e" stroke-width="2.5" fill="none" stroke-dasharray="8 10"></path></g><g transform="translate(1064.5168475263729 252.3790378390142) rotate(0 61.911655754503386 -1.8573496726351095)"><path d="M101.55 6.28 C111.19 4.27, 120.11 -1.94, 124.79 -2.95" stroke="#1e1e1e" stroke-width="2.5" fill="none"></path></g><g transform="translate(1064.5168475263729 252.3790378390142) rotate(0 61.911655754503386 -1.8573496726351095)"><path d="M101.06 -10.82 C110.9 -6.47, 120 -6.32, 124.79 -2.95" stroke="#1e1e1e" stroke-width="2.5" fill="none"></path></g></g><mask></mask><g stroke-linecap="round"><g transform="translate(793.9629118791934 313.6715770359725) rotate(0 1.5477913938625534 43.64771730692482)"><path d="M0.07 0.29 C0.22 14.77, 1.56 72.77, 2.11 87.16" stroke="#1e1e1e" stroke-width="2.5" fill="none" stroke-dasharray="8 10"></path></g><g transform="translate(793.9629118791934 313.6715770359725) rotate(0 1.5477913938625534 43.64771730692482)"><path d="M-7.12 63.93 C-2.91 71.49, 0.04 82.73, 2.11 87.16" stroke="#1e1e1e" stroke-width="2.5" fill="none"></path></g><g transform="translate(793.9629118791934 313.6715770359725) rotate(0 1.5477913938625534 43.64771730692482)"><path d="M9.97 63.43 C7.4 71.2, 3.57 82.64, 2.11 87.16" stroke="#1e1e1e" stroke-width="2.5" fill="none"></path></g></g><mask></mask><g stroke-linecap="round"><g transform="translate(410.81829025419074 404.0625944375475) rotate(0 1.1264470102570385 -43.16255189460003)"><path d="M-0.28 -1.2 C-0.15 -15.75, 1.12 -73.06, 1.74 -87.14" stroke="#1e1e1e" stroke-width="2.5" fill="none" stroke-dasharray="8 10"></path></g><g transform="translate(410.81829025419074 404.0625944375475) rotate(0 1.1264470102570385 -43.16255189460003)"><path d="M9.56 -63.4 C4.57 -73.25, 2.25 -79.44, 1.74 -87.14" stroke="#1e1e1e" stroke-width="2.5" fill="none"></path></g><g transform="translate(410.81829025419074 404.0625944375475) rotate(0 1.1264470102570385 -43.16255189460003)"><path d="M-7.53 -63.93 C-6.06 -73.54, -1.91 -79.53, 1.74 -87.14" stroke="#1e1e1e" stroke-width="2.5" fill="none"></path></g></g><mask></mask><g mask="url(#mask-AdxwA0ijK5la6630akrWz)" stroke-linecap="round"><g transform="translate(70.80608779001034 366.6769984276769) rotate(0 150.45966592173505 -47.97518870929835)"><path d="M0.52 -0.74 C50.75 -16.72, 251.91 -78.95, 301.89 -95.01" stroke="#1e1e1e" stroke-width="2.5" fill="none" stroke-dasharray="8 10"></path></g><g transform="translate(70.80608779001034 366.6769984276769) rotate(0 150.45966592173505 -47.97518870929835)"><path d="M20.4 -15.9 C12.39 -8.94, 8.32 -6.17, 0.52 -0.74" stroke="#1e1e1e" stroke-width="2.5" fill="none"></path></g><g transform="translate(70.80608779001034 366.6769984276769) rotate(0 150.45966592173505 -47.97518870929835)"><path d="M25.5 0.42 C15.61 1.75, 9.77 -1.12, 0.52 -0.74" stroke="#1e1e1e" stroke-width="2.5" fill="none"></path></g><g transform="translate(70.80608779001034 366.6769984276769) rotate(0 150.45966592173505 -47.97518870929835)"><path d="M282.05 -79.8 C287.58 -83.52, 297.26 -91.26, 301.89 -95.01" stroke="#1e1e1e" stroke-width="2.5" fill="none"></path></g><g transform="translate(70.80608779001034 366.6769984276769) rotate(0 150.45966592173505 -47.97518870929835)"><path d="M276.92 -96.11 C284.34 -94.21, 295.79 -96.31, 301.89 -95.01" stroke="#1e1e1e" stroke-width="2.5" fill="none"></path></g></g><mask id="mask-AdxwA0ijK5la6630akrWz"><rect x="0" y="0" fill="#fff" width="471.72541963348044" height="562.6273758462736"></rect><rect x="169.70325371174545" y="309.1018097183785" fill="#000" width="103.125" height="19.2" opacity="1"></rect></mask><g transform="translate(169.70325371174545 309.10180971837855) rotate(0 52.31157298386091 9.70200395286082)"><text x="51.5625" y="15.45" font-family="Cascadia, Segoe UI Emoji" font-size="16px" fill="#1e1e1e" text-anchor="middle" style="white-space: pre;" direction="ltr" dominant-baseline="alphabetic">Request URL</text></g><g mask="url(#mask-_355T4p2ww7rInBHdZhYw)" stroke-linecap="round"><g transform="translate(73.31123889677383 285.8113319464459) rotate(0 337.1089655832708 -124.13286978777933)"><path d="M-0.92 -0.24 C35.25 -41.65, 103.85 -207.96, 216.24 -249.24 C328.64 -290.53, 596.96 -248.28, 673.45 -247.97" stroke="#1e1e1e" stroke-width="2.5" fill="none" stroke-dasharray="8 10"></path></g><g transform="translate(73.31123889677383 285.8113319464459) rotate(0 337.1089655832708 -124.13286978777933)"><path d="M649.39 -241.18 C654.67 -243.33, 659.06 -245.45, 673.45 -247.97" stroke="#1e1e1e" stroke-width="2.5" fill="none"></path></g><g transform="translate(73.31123889677383 285.8113319464459) rotate(0 337.1089655832708 -124.13286978777933)"><path d="M650.65 -258.23 C655.52 -256.41, 659.62 -254.53, 673.45 -247.97" stroke="#1e1e1e" stroke-width="2.5" fill="none"></path></g></g><mask id="mask-_355T4p2ww7rInBHdZhYw"><rect x="0" y="0" fill="#fff" width="847.5291700633154" height="634.0770715220045"></rect><rect x="238.43953403753574" y="27.945592370887255" fill="#000" width="103.125" height="19.2" opacity="1"></rect></mask><g transform="translate(238.43953403753574 27.945592370887198) rotate(0 171.13657373123095 124.07713596347108)"><text x="51.5625" y="15.45" font-family="Cascadia, Segoe UI Emoji" font-size="16px" fill="#1e1e1e" text-anchor="middle" style="white-space: pre;" direction="ltr" dominant-baseline="alphabetic">Upload File</text></g></svg>
